<svg width="8" height="10" xmlns="http://www.w3.org/2000/svg"><g fill="#4C4C4C" fill-rule="evenodd"><path d="M5.16 3.63a.227.227 0 0 0-.222.233v4.405c0 .129.099.233.221.233a.227.227 0 0 0 .221-.233V3.863a.227.227 0 0 0-.22-.234zm-2.61 0a.227.227 0 0 0-.22.233v4.405c0 .129.099.233.22.233a.227.227 0 0 0 .222-.233V3.863a.227.227 0 0 0-.221-.234z"/><path d="M.65 2.987V8.73c0 .34.118.658.324.887.205.229.49.36.79.36h4.182c.3 0 .585-.131.79-.36a1.33 1.33 0 0 0 .324-.887V2.987c.41-.115.676-.533.62-.976-.054-.444-.412-.775-.837-.776H5.712v-.29A.942.942 0 0 0 5.457.29a.846.846 0 0 0-.62-.268H2.873a.846.846 0 0 0-.62.268.942.942 0 0 0-.256.653v.291H.866c-.424 0-.782.332-.837.776-.055.443.211.86.62.976zM5.946 9.51H1.764c-.378 0-.672-.342-.672-.78V3.007h5.526V8.73c0 .438-.294.78-.672.78zM2.44.944A.462.462 0 0 1 2.566.62a.414.414 0 0 1 .308-.13h1.962a.414.414 0 0 1 .308.13.461.461 0 0 1 .126.324v.291H2.44v-.29zm-1.574.758h5.977a.41.41 0 0 1 .398.42.41.41 0 0 1-.398.419H.866a.41.41 0 0 1-.397-.42.41.41 0 0 1 .397-.42z" fill-rule="nonzero"/><path d="M3.855 3.63a.227.227 0 0 0-.221.233v4.405c0 .129.099.233.221.233a.227.227 0 0 0 .221-.233V3.863a.227.227 0 0 0-.221-.234z"/></g></svg>