<svg width="10" height="10" xmlns="http://www.w3.org/2000/svg"><path d="M9.396.47a1.61 1.61 0 0 0-2.273 0L.683 6.91c-.003.002-.004.006-.007.01l-.01.013a.174.174 0 0 0-.023.043l-.005.013-.002.005-.631 2.652A.177.177 0 0 0 0 9.682v.008a.178.178 0 0 0 .017.072c.009.02.02.038.035.053a.18.18 0 0 0 .167.047l2.652-.63.014-.006a.165.165 0 0 0 .054-.03l.012-.009.005-.003 6.44-6.44a1.61 1.61 0 0 0 0-2.273zm-.252.252c.444.445.482 1.143.116 1.632L7.512.606a1.251 1.251 0 0 1 1.632.116zM8.26 3.374L6.492 1.606l.252-.252 1.768 1.768-.252.252zM.886 8.98a.178.178 0 0 0-.253 0l-.135.135L.954 7.2l.79-.087-.102.914.002.02-.002.02.005.016a.181.181 0 0 0 .044.085.179.179 0 0 0 .09.05c.007.002.012.006.019.007h.04l.914-.102-.087.79-1.916.456.135-.136a.179.179 0 0 0 0-.252zm2.241-.978l3.996-3.997a.178.178 0 1 0-.252-.252L2.874 7.749l-.852.095.095-.853 3.996-3.996a.178.178 0 1 0-.252-.252L1.864 6.739l-.568.063L6.239 1.86l1.768 1.768L3.064 8.57l.063-.568zm5.638-5.133L6.997 1.101 7.249.85l1.768 1.767-.252.253z" fill="#4C4C4C"/></svg>