<svg width="10" height="10" xmlns="http://www.w3.org/2000/svg"><g fill="#4C4C4C" fill-rule="evenodd"><path d="M9.167.938H7.813V.313a.312.312 0 1 0-.625 0v.625H5.313V.313a.312.312 0 1 0-.625 0v.625H2.813V.313a.312.312 0 1 0-.626 0v.625H.833A.833.833 0 0 0 0 1.77v7.396c0 .46.373.833.833.833h8.334c.46 0 .833-.373.833-.833V1.77a.833.833 0 0 0-.833-.833zm.208 8.229a.209.209 0 0 1-.208.208H.833a.209.209 0 0 1-.208-.208V1.77c0-.115.093-.208.208-.208h1.355v.625a.312.312 0 1 0 .624 0v-.626h1.876v.625a.312.312 0 1 0 .625 0v-.624h1.875v.625a.312.312 0 1 0 .625 0v-.626h1.354c.115 0 .208.094.208.209v7.396z" fill-rule="nonzero"/><path d="M2.188 3.75h1.25v1h-1.25zm0 1.563h1.25v1h-1.25zm0 1.562h1.25v1h-1.25zm2.187 0h1.25v1h-1.25zm0-1.562h1.25v1h-1.25zm0-1.563h1.25v1h-1.25zm2.188 3.125h1.25v1h-1.25zm0-1.562h1.25v1h-1.25zm0-1.563h1.25v1h-1.25z"/></g></svg>