<?xml version="1.0" encoding="UTF-8"?>
<svg width="21px" height="25px" viewBox="0 0 21 25" version="1.1" xmlns="http://www.w3.org/2000/svg" xmlns:xlink="http://www.w3.org/1999/xlink">
    <!-- Generator: Sketch 52.5 (67469) - http://www.bohemiancoding.com/sketch -->
    <title>alarm-bell</title>
    <desc>Created with Sketch.</desc>
    <g id="Page-1" stroke="none" stroke-width="1" fill="none" fill-rule="evenodd">
        <g id="6.0-.-Xoá-lịch-đã-đặt" transform="translate(-1176.000000, -26.000000)" fill="#868686">
            <g id="Group-10">
                <g id="alarm-bell" transform="translate(1176.000000, 26.000000)">
                    <path d="M3.5876272,9.04350283 L3.5876272,12.5745773 C3.5876272,14.5290375 2.88234919,16.4110184 1.64444041,17.8817749 L19.3778797,17.8817749 C18.1399709,16.4110184 17.434693,14.5290375 17.434693,12.5745773 L17.434693,9.04350283 C17.434693,5.2265167 14.3287609,2.1211624 10.5112555,2.1211624 C6.69355924,2.1211624 3.5876272,5.2265167 3.5876272,9.04350283 Z" id="Path"></path>
                    <polygon id="Path" points="0.531676974 21.7340469 20.490834 21.7340469 20.490834 19.3473816 0.531676974 19.3473816"></polygon>
                    <path d="M10.5112555,25 C11.5112736,25 12.3268169,24.1954804 12.3445585,23.1998443 L8.67795239,23.1998443 C8.69550326,24.1954804 9.51123727,25 10.5112555,25 Z" id="Path"></path>
                    <path d="M6.85628634,1.33972168 L6.26165517,0 C2.47276524,1.68113711 0.0244186047,5.44433594 0.0244186047,9.58747861 L1.49029797,9.58747861 C1.49029797,6.02340698 3.59659337,2.78587344 6.85628634,1.33972168 Z" id="Path"></path>
                    <path d="M19.5320222,9.58747861 L20.9979015,9.58747861 C20.9979015,5.44433594 18.5497456,1.68113711 14.760665,0 L14.1660338,1.33972168 C17.4257267,2.78587344 19.5320222,6.02340698 19.5320222,9.58747861 Z" id="Path"></path>
                </g>
            </g>
        </g>
    </g>
</svg>