<?xml version="1.0" encoding="UTF-8"?>
<svg width="8px" height="10px" viewBox="0 0 8 10" version="1.1" xmlns="http://www.w3.org/2000/svg" xmlns:xlink="http://www.w3.org/1999/xlink">
    <!-- Generator: Sketch 52.5 (67469) - http://www.bohemiancoding.com/sketch -->
    <title>delete</title>
    <desc>Created with Sketch.</desc>
    <g id="Page-1" stroke="none" stroke-width="1" fill="none" fill-rule="evenodd">
        <g id="7.0.-Chọn-chỉnh-sửa-lịch(người-dùng-đặt)" transform="translate(-1092.000000, -336.000000)" fill="#4C4C4C">
            <g id="Group-5" transform="translate(814.000000, 326.000000)">
                <g id="delete" transform="translate(278.000000, 10.000000)">
                    <path d="M5.15911667,3.62944347 C5.03702476,3.62944347 4.93807334,3.73379226 4.93807334,3.86254371 L4.93807334,8.26813811 C4.93807334,8.39679851 5.03702476,8.50123834 5.15911667,8.50123834 C5.28120855,8.50123834 5.38015999,8.39679851 5.38015999,8.26813811 L5.38015999,3.86254371 C5.38015999,3.73379226 5.28120855,3.62944347 5.15911667,3.62944347 Z" id="Path"></path>
                    <path d="M2.55080544,3.62944347 C2.42871353,3.62944347 2.32976211,3.73379226 2.32976211,3.86254371 L2.32976211,8.26813811 C2.32976211,8.39679851 2.42871353,8.50123834 2.55080544,8.50123834 C2.67289733,8.50123834 2.77184876,8.39679851 2.77184876,8.26813811 L2.77184876,3.86254371 C2.77184876,3.73379226 2.67289733,3.62944347 2.55080544,3.62944347 Z" id="Path"></path>
                    <path d="M0.649832847,2.98650569 L0.649832847,8.72960373 C0.649832847,9.06905594 0.767866512,9.38783872 0.974058488,9.61656832 C1.17930066,9.84593531 1.46493011,9.97614364 1.76385665,9.97668998 L5.94606543,9.97668998 C6.24507834,9.97614364 6.53070776,9.84593531 6.73586359,9.61656832 C6.94205557,9.38783872 7.06008926,9.06905594 7.06008926,8.72960373 L7.06008926,2.98650569 C7.46996919,2.87177667 7.73556656,2.45419944 7.68073744,2.01067161 C7.62582202,1.56723485 7.26757639,1.23552228 6.84344951,1.23543124 L5.71172498,1.23543124 L5.71172498,0.944055944 C5.71302014,0.699027529 5.62114901,0.463741981 5.45666169,0.290646853 C5.29217438,0.117642774 5.0687134,0.0213068182 4.83635886,0.0233100233 L2.87356322,0.0233100233 C2.64120869,0.0213068182 2.4177477,0.117642774 2.25326039,0.290646853 C2.08877308,0.463741981 1.99690195,0.699027529 1.99819713,0.944055944 L1.99819713,1.23543124 L0.866472569,1.23543124 C0.44234569,1.23552228 0.0841000884,1.56723485 0.0291846154,2.01067161 C-0.0256444739,2.45419944 0.239952896,2.87177667 0.649832847,2.98650569 Z M5.94606543,9.51048951 L1.76385665,9.51048951 C1.38592438,9.51048951 1.0919195,9.16812354 1.0919195,8.72960373 L1.0919195,3.00699301 L6.61800261,3.00699301 L6.61800261,8.72960373 C6.61800261,9.16812354 6.3239977,9.51048951 5.94606543,9.51048951 Z M2.44028378,0.944055944 C2.43881589,0.82267993 2.4840607,0.705856643 2.56574313,0.620174103 C2.64733919,0.534491562 2.75837891,0.487416224 2.87356322,0.48951049 L4.83635886,0.48951049 C4.95154315,0.487416224 5.06258289,0.534491562 5.14417896,0.620174103 C5.22586138,0.705765594 5.27110619,0.82267993 5.26963833,0.944055944 L5.26963833,1.23543124 L2.44028378,1.23543124 L2.44028378,0.944055944 Z M0.866472569,1.7016317 L6.84344951,1.7016317 C7.06319766,1.7016317 7.2413275,1.88947772 7.2413275,2.12121212 C7.2413275,2.35294653 7.06319766,2.54079254 6.84344951,2.54079254 L0.866472569,2.54079254 C0.646724403,2.54079254 0.468594584,2.35294653 0.468594584,2.12121212 C0.468594584,1.88947772 0.646724403,1.7016317 0.866472569,1.7016317 Z" id="Shape" fill-rule="nonzero"></path>
                    <path d="M3.85496105,3.62944347 C3.73286914,3.62944347 3.63391773,3.73379226 3.63391773,3.86254371 L3.63391773,8.26813811 C3.63391773,8.39679851 3.73286914,8.50123834 3.85496105,8.50123834 C3.97705294,8.50123834 4.07600438,8.39679851 4.07600438,8.26813811 L4.07600438,3.86254371 C4.07600438,3.73379226 3.97705294,3.62944347 3.85496105,3.62944347 Z" id="Path"></path>
                </g>
            </g>
        </g>
    </g>
</svg>