<?xml version="1.0" encoding="UTF-8"?>
<svg width="10px" height="10px" viewBox="0 0 10 10" version="1.1" xmlns="http://www.w3.org/2000/svg" xmlns:xlink="http://www.w3.org/1999/xlink">
    <!-- Generator: Sketch 52.5 (67469) - http://www.bohemiancoding.com/sketch -->
    <title>edit</title>
    <desc>Created with Sketch.</desc>
    <g id="Page-1" stroke="none" stroke-width="1" fill="none" fill-rule="evenodd">
        <g id="7.0.-Chọn-chỉnh-sửa-lịch(người-dùng-đặt)" transform="translate(-1067.000000, -336.000000)" fill="#4C4C4C" fill-rule="nonzero">
            <g id="Group-5" transform="translate(814.000000, 326.000000)">
                <g id="edit" transform="translate(253.000000, 10.000000)">
                    <path d="M9.39607143,0.469821429 C8.76928571,-0.156607143 7.74982143,-0.156607143 7.12303571,0.469821429 L0.683392857,6.90946429 C0.680357143,6.9125 0.678571429,6.91625 0.675892857,6.91946429 C0.672142857,6.92375 0.668928571,6.92839286 0.665535714,6.93303571 C0.656071429,6.94625 0.64875,6.96035714 0.643214286,6.97571429 C0.641607143,6.98035714 0.639285714,6.98446429 0.638035714,6.98910714 C0.6375,6.99089286 0.636428571,6.99267857 0.635892857,6.99446429 L0.00464285714,9.64625 C0.00178571429,9.65821429 0.00107142857,9.67035714 0.000714285714,9.68232143 C0.000714285714,9.68464286 0,9.68678571 0,9.68910714 C0.000178571429,9.70946429 0.00464285714,9.72928571 0.0116071429,9.74839286 C0.0132142857,9.75285714 0.015,9.75678571 0.0169642857,9.76107143 C0.0257142857,9.78017857 0.0366071429,9.79857143 0.0519642857,9.81392857 C0.0689285714,9.83089286 0.0889285714,9.84392857 0.110535714,9.85285714 C0.132142857,9.86178571 0.155178571,9.86625 0.178214286,9.86625 C0.191964286,9.86625 0.205892857,9.86464286 0.219464286,9.86142857 L2.87125,9.23017857 C2.87607143,9.22910714 2.88035714,9.22642857 2.885,9.22482143 C2.89107143,9.22285714 2.89678571,9.22053571 2.90267857,9.21785714 C2.91553571,9.21196429 2.9275,9.20464286 2.93857143,9.19589286 C2.94285714,9.1925 2.94732143,9.19 2.95142857,9.18625 C2.95285714,9.18482143 2.95464286,9.18410714 2.95607143,9.18267857 L9.39589286,2.74285714 C10.0226786,2.11607143 10.0226786,1.09642857 9.39607143,0.469821429 Z M9.14357143,0.722321429 C9.58785714,1.16678571 9.62571429,1.86464286 9.25964286,2.35392857 L7.51196429,0.60625 C8.00142857,0.240178571 8.69928571,0.278035714 9.14357143,0.722321429 Z M8.25964286,3.37410714 L6.49178571,1.60625 L6.74428571,1.35375 L8.51214286,3.12160714 L8.25964286,3.37410714 Z M0.885892857,8.98 C0.816071429,8.91017857 0.703214286,8.91017857 0.633392857,8.98 L0.498214286,9.11517857 L0.954285714,7.19946429 L1.74392857,7.11178571 L1.64232143,8.02642857 C1.64160714,8.03321429 1.64410714,8.03946429 1.64410714,8.04607143 C1.64410714,8.05285714 1.64160714,8.05892857 1.64232143,8.06571429 C1.64303571,8.07160714 1.64607143,8.07642857 1.64732143,8.08214286 C1.64946429,8.0925 1.6525,8.10196429 1.65625,8.11160714 C1.66089286,8.12321429 1.66642857,8.13375 1.67321429,8.14392857 C1.67875,8.15214286 1.68428571,8.15946429 1.69107143,8.16660714 C1.69964286,8.17571429 1.70892857,8.18339286 1.71910714,8.19053571 C1.72714286,8.19607143 1.73482143,8.20125 1.74375,8.20553571 C1.75553571,8.21107143 1.76785714,8.21428571 1.78071429,8.21732143 C1.7875,8.21892857 1.79303571,8.22267857 1.8,8.22357143 C1.80642857,8.22428571 1.81285714,8.22464286 1.81946429,8.22464286 C1.81946429,8.22464286 1.81964286,8.22464286 1.81964286,8.22464286 C1.81964286,8.22464286 1.81982143,8.22464286 1.81982143,8.22464286 L1.82,8.22464286 C1.82,8.22464286 1.82017857,8.22464286 1.82017857,8.22464286 C1.82660714,8.22464286 1.83321429,8.22428571 1.83964286,8.22357143 L2.75428571,8.12196429 L2.66660714,8.91160714 L0.750714286,9.36767857 L0.885892857,9.2325 C0.955535714,9.16285714 0.955535714,9.04982143 0.885892857,8.98 Z M3.12696429,8.00160714 L7.12303571,4.00535714 C7.19285714,3.93553571 7.19285714,3.82267857 7.12303571,3.75285714 C7.05321429,3.68303571 6.94035714,3.68303571 6.87053571,3.75285714 L2.87446429,7.74910714 L2.02214286,7.84375 L2.11678571,6.99142857 L6.11321429,2.99535714 C6.18303571,2.92553571 6.18303571,2.81267857 6.11321429,2.74285714 C6.04339286,2.67303571 5.93053571,2.67303571 5.86071429,2.74285714 L1.86428571,6.73892857 L1.29589286,6.80214286 L6.23928571,1.85875 L8.00714286,3.62660714 L3.06375,8.57 L3.12696429,8.00160714 Z M8.76464286,2.86910714 L6.99678571,1.10125 L7.24946429,0.848571429 L9.01732143,2.61642857 L8.76464286,2.86910714 Z" id="Shape"></path>
                </g>
            </g>
        </g>
    </g>
</svg>