<?xml version="1.0" encoding="UTF-8"?>
<svg width="247px" height="60px" viewBox="0 0 247 60" version="1.1" xmlns="http://www.w3.org/2000/svg" xmlns:xlink="http://www.w3.org/1999/xlink">
    <!-- Generator: Sketch 52.5 (67469) - http://www.bohemiancoding.com/sketch -->
    <title>logo-light</title>
    <desc>Created with Sketch.</desc>
    <defs>
        <polygon id="path-1" points="0.200115607 0.118959538 59.7558382 0.118959538 59.7558382 59.6746474 0.200115607 59.6746474"></polygon>
    </defs>
    <g id="Page-1" stroke="none" stroke-width="1" fill="none" fill-rule="evenodd">
        <g id="6.0-.-Xoá-lịch-đã-đặt" transform="translate(-10.000000, -8.000000)">
            <g id="Group-10">
                <g id="logo-light" transform="translate(10.000000, 8.000000)">
                    <g id="Group-3">
                        <g id="Fill-1-Clipped">
                            <g>
                                <mask id="mask-2" fill="white">
                                    <use xlink:href="#path-1"></use>
                                </mask>
                                <g id="path-1"></g>
                                <path d="M29.9781503,0.118924855 C46.4240462,0.118924855 59.7558382,13.4507168 59.7558382,29.8966127 C59.7558382,46.3425087 46.4240462,59.6746474 29.9781503,59.6746474 C13.5322543,59.6746474 0.200115607,46.3425087 0.200115607,29.8966127 C0.200115607,13.4507168 13.5322543,0.118924855 29.9781503,0.118924855" id="Fill-1" fill="#02A959" mask="url(#mask-2)"></path>
                            </g>
                        </g>
                    </g>
                    <path d="M30.0759538,3.46820809 C36.9880925,3.46820809 43.2520231,6.12936416 47.9393064,10.4993064 C48.3648555,10.8821965 49.385896,11.8657803 48.7467052,13.7698266 L48.1387283,15.5878613 L48.1234682,15.6190751 L36.6419653,49.6012717 L30.8965318,32.5956069 L32.7381503,23.4083237 L23.1634682,49.5159538 L11.5602312,21.2916763 L17.0049711,21.2916763 C18.5063584,21.2646243 19.4150289,22.0206936 19.8721387,23.1475145 L23.4724855,31.5693642 L21.9544509,41.1183815 L27.2299422,21.2916763 L32.2220809,21.2916763 C33.7023121,21.3436994 34.6921387,22.2554913 34.9872832,23.5175723 L36.8691329,32.6819653 L42.0117919,14.5671676 C42.7033526,12.3495954 41.1839306,11.2643931 40.5239306,10.9040462 C37.4306358,9.18242775 33.8677457,8.2016185 30.0749133,8.2016185 C18.1879769,8.2016185 8.54913295,17.8418497 8.54913295,29.7291329 C8.54913295,41.6146821 18.2621965,51.2549133 30.0749133,51.2549133 C40.3085549,51.2549133 48.783815,44.3309827 51.0201156,34.8839306 C51.499422,32.783237 49.9623121,31.7282081 49.2339884,31.5041618 L45.7411561,30.3256647 L54.0475145,30.3256647 C55.6359538,30.5309827 56.1475145,31.7465896 56.1076301,33.1834682 C54.4172254,46.0519075 43.4060116,55.9890173 30.0759538,55.9890173 C15.5753757,55.9890173 3.8150289,44.2286705 3.8150289,29.7291329 C3.8150289,15.2285549 15.5753757,3.46820809 30.0759538,3.46820809" id="Fill-4" fill="#FEFEFE"></path>
                    <path d="M47.8630058,21.2265206 C48.6319075,20.9383126 49.4091329,20.6639773 50.2446243,20.4808559 C50.6739884,20.3681391 50.8706358,20.3133415 50.7319075,19.6665206 L50.2411561,17.5516073 C50.1936416,17.3216652 50.030289,17.1919542 49.743815,17.3365784 C48.6412717,17.979931 47.9493642,19.452879 47.8630058,21.2265206 M54.9700578,20.3556536 C55.1764162,20.829064 55.3467052,21.3402779 55.4719075,21.8802779 C56.1943353,25.0072143 55.1261272,27.9166941 53.0854335,28.3765784 C51.0443931,28.8368097 48.8042775,26.6740351 48.0797688,23.5470987 C47.9549133,23.0070987 47.8834682,22.4736883 47.8612717,21.9583126 C50.1176879,21.0812027 52.4871676,20.5470987 54.9700578,20.3556536 M51.3436994,17.0095264 C52.5856647,17.1610871 53.8109827,18.1772721 54.646474,19.6970409 C53.8508671,19.7951912 53.0521387,19.8753068 52.2579191,20.0473299 C51.632948,20.155538 51.485896,20.0223588 51.3544509,19.4240929 L50.8900578,17.4132258 C50.7936416,17.0605091 50.9726012,16.9498732 51.3436994,17.0095264" id="Fill-6" fill="#FEFEFE" fill-rule="nonzero"></path>
                    <path d="M87.5533722,17.9722649 L83.7250417,17.9722649 C83.2273896,17.2559135 82.5696678,16.6946432 81.7523896,16.2899946 C80.9351113,15.8853459 80.0834591,15.6830216 79.19692,15.6830216 C77.6557374,15.6830216 76.31772,16.1806162 75.1818417,17.178373 C74.5903026,17.6918865 74.1162504,18.3419946 73.75712,19.1286973 C73.4005548,19.9154 73.2209896,20.7139135 73.2209896,21.5232108 C73.2209896,22.2400757 73.3656678,22.956427 73.6524591,23.6727784 C73.9407896,24.3896432 74.3419896,25.0120216 74.855033,25.5419676 C76.0842852,26.8195892 77.5782678,27.4578865 79.3364678,27.4578865 C80.3481896,27.4578865 81.3255374,27.1734 82.2664591,26.604427 C83.2073809,26.0364811 83.9117896,25.2924 84.3786591,24.3737243 L77.1426939,24.3737243 L77.1426939,21.3368054 L88.3932243,21.3368054 L88.3932243,21.7101297 C88.3932243,24.2016973 87.4907809,26.3050486 85.6858939,28.0186432 C83.8804939,29.7322378 81.7328939,30.5887784 79.243607,30.5887784 C76.7219983,30.5887784 74.5518243,29.7245351 72.731033,27.9950216 C70.9102417,26.2660216 70.0001026,24.1400757 70.0001026,21.6171838 C70.0001026,19.0778595 70.9025461,16.9324 72.707433,15.1802919 C74.512833,13.4281838 76.6758243,12.5521297 79.19692,12.5521297 C80.9859026,12.5521297 82.6635548,13.0425351 84.2267983,14.0233459 C85.7915809,15.0046703 86.8992417,16.3213189 87.5533722,17.9722649 Z M90.6347113,30.1682108 L90.6347113,12.8787243 L95.6297026,12.8787243 C96.6414243,12.8787243 97.4853809,12.9526703 98.1620852,13.1005622 C98.8387896,13.2489676 99.4883026,13.5765892 100.111137,14.0818865 C100.733459,14.5882108 101.224442,15.2265081 101.582033,15.9978054 C101.939624,16.7691027 102.118163,17.5516973 102.118163,18.3455892 C102.118163,19.0003189 101.990416,19.6781568 101.733381,20.3785892 C101.476346,21.0795351 101.142355,21.6515892 100.730381,22.0962919 C100.317381,22.5399676 99.8505113,22.8978865 99.3292591,23.1705622 C98.80852,23.4432378 98.2441722,23.6414541 97.6367287,23.7667514 L102.305424,30.1682108 L98.38372,30.1682108 L93.8561113,23.5320757 L93.8561113,30.1682108 L90.6347113,30.1682108 Z M93.8561113,21.1031568 L95.5830157,21.1031568 C96.2987113,21.1031568 96.8399722,21.0446162 97.2052591,20.9280486 C97.5710591,20.8109676 97.8855548,20.6358595 98.1502852,20.4022108 C98.6797461,19.8727784 98.9439635,19.2498865 98.9439635,18.5330216 C98.9439635,17.7083189 98.6335722,17.0535892 98.0102243,16.570373 C97.4658852,16.1960216 96.8122678,16.0096162 96.0493722,16.0096162 L93.8561113,16.0096162 L93.8561113,21.1031568 Z M104.406337,30.1682108 L104.406337,12.8787243 L116.824555,12.8787243 L116.824555,16.0096162 L107.627224,16.0096162 L107.627224,19.9811297 L116.824555,19.9811297 L116.824555,23.0658054 L107.627224,23.0658054 L107.627224,27.0373189 L116.824555,27.0373189 L116.824555,30.1682108 L104.406337,30.1682108 Z M120.092129,30.1682108 L120.092129,12.8787243 L132.510346,12.8787243 L132.510346,16.0096162 L123.313016,16.0096162 L123.313016,19.9811297 L132.510346,19.9811297 L132.510346,23.0658054 L123.313016,23.0658054 L123.313016,27.0373189 L132.510346,27.0373189 L132.510346,30.1682108 L120.092129,30.1682108 Z M135.778433,30.1682108 L135.778433,12.8787243 L139.373329,12.8787243 L146.562607,25.4957514 L146.562607,12.8787243 L149.783494,12.8787243 L149.783494,30.1682108 L146.219894,30.1759135 L138.999833,17.5989405 L138.999833,30.1682108 L135.778433,30.1682108 Z M176.487407,17.9722649 L172.659077,17.9722649 C172.160911,17.2559135 171.503703,16.6946432 170.686424,16.2899946 C169.869659,15.8853459 169.01852,15.6830216 168.131468,15.6830216 C166.590285,15.6830216 165.251242,16.1806162 164.115877,17.178373 C163.523824,17.6918865 163.050285,18.3419946 162.691668,19.1286973 C162.333563,19.9154 162.155024,20.7139135 162.155024,21.5232108 C162.155024,22.2400757 162.29919,22.956427 162.586494,23.6727784 C162.874824,24.3896432 163.276024,25.0120216 163.789581,25.5419676 C165.01832,26.8195892 166.512303,27.4578865 168.271016,27.4578865 C169.282224,27.4578865 170.258546,27.1734 171.201007,26.604427 C172.141416,26.0364811 172.846337,25.2924 173.313207,24.3737243 L166.076729,24.3737243 L166.076729,21.3368054 L177.327259,21.3368054 L177.327259,21.7101297 C177.327259,24.2016973 176.424816,26.3050486 174.619929,28.0186432 C172.814529,29.7322378 170.666929,30.5887784 168.177129,30.5887784 C165.656033,30.5887784 163.485859,29.7245351 161.664555,27.9950216 C159.844277,26.2660216 158.934137,24.1400757 158.934137,21.6171838 C158.934137,19.0778595 159.836581,16.9324 161.641981,15.1802919 C163.446868,13.4281838 165.609859,12.5521297 168.131468,12.5521297 C169.92045,12.5521297 171.596563,13.0425351 173.160833,14.0233459 C174.725616,15.0046703 175.83379,16.3213189 176.487407,17.9722649 Z M179.568233,30.1682108 L179.568233,12.8787243 L182.790146,12.8787243 L182.790146,27.0373189 L188.064746,27.0373189 L188.064746,30.1682108 L179.568233,30.1682108 Z M197.168703,12.5048865 C199.393772,12.5048865 201.296137,13.3896703 202.875798,15.1571838 C204.454946,16.9252108 205.245546,19.0629676 205.245546,21.5704541 C205.245546,24.0620216 204.450842,26.1802649 202.863485,27.9251838 C201.276642,29.6695892 199.378381,30.5415351 197.168703,30.5415351 C194.942607,30.5415351 193.032546,29.6736973 191.437494,27.9375081 C189.842955,26.1997784 189.045172,24.077427 189.045172,21.5704541 C189.045172,19.0465351 189.831155,16.9056973 191.402607,15.145373 C192.975085,13.3850486 194.89592,12.5048865 197.168703,12.5048865 Z M197.168703,15.6357784 C195.705503,15.6357784 194.467016,16.2047514 193.45632,17.3416703 C192.445624,18.4785892 191.939763,19.8568595 191.939763,21.4764811 C191.939763,23.1120216 192.449729,24.5098054 193.469146,25.6708595 C194.488563,26.8308865 195.720894,27.4106432 197.168703,27.4106432 C198.568798,27.4106432 199.790355,26.8262649 200.833372,25.6590486 C201.875363,24.4908054 202.397129,23.0961027 202.397129,21.4764811 C202.397129,19.8568595 201.891268,18.4785892 200.879546,17.3416703 C199.868337,16.2047514 198.630363,15.6357784 197.168703,15.6357784 Z M207.39212,30.1682108 L207.39212,12.8787243 L211.032677,12.8787243 C211.905877,12.8787243 212.663642,12.9177514 213.309563,12.9958054 C213.955998,13.0738595 214.566007,13.2530757 215.141642,13.5334541 C215.842459,13.9067784 216.422711,14.4521297 216.881885,15.1684811 C217.340033,15.8853459 217.569363,16.6330216 217.569363,17.4120216 C217.569363,18.1278595 217.406216,18.7861838 217.07992,19.3854541 C216.752598,19.9847243 216.278546,20.4335351 215.655198,20.7288054 C216.604329,21.0251027 217.33285,21.5391297 217.837685,22.2714 C218.343546,23.0031568 218.596477,23.8751027 218.596477,24.8877514 C218.596477,26.6162378 217.896172,27.9873189 216.494537,28.9999676 C215.888633,29.4518595 215.134459,29.7712649 214.231503,29.9571568 C213.531198,30.0978595 212.699042,30.1682108 211.73452,30.1682108 L207.39212,30.1682108 Z M210.613007,27.0373189 L211.920755,27.0373189 C212.480998,27.0373189 212.970442,26.9982919 213.39165,26.9202378 C213.812346,26.8426973 214.207903,26.6794 214.581911,26.4303459 C215.141642,26.0559946 215.421763,25.4957514 215.421763,24.7480757 C215.421763,24.3424 215.328903,24.0004 215.141642,23.7195081 C214.954894,23.4391297 214.659894,23.1900757 214.25459,22.9718324 C214.037059,22.8470486 213.760529,22.7618054 213.426537,22.7150757 C213.09152,22.6678324 212.760607,22.6447243 212.434311,22.6447243 L210.613007,22.6447243 L210.613007,27.0373189 Z M210.613007,19.5605622 L211.22045,19.5605622 L211.73452,19.5605622 C211.998737,19.5605622 212.286042,19.5379676 212.597459,19.4912378 C212.908877,19.4439946 213.165911,19.3741568 213.36805,19.2801838 C214.022181,18.9849135 214.34745,18.4549676 214.34745,17.6918865 C214.34745,17.3339676 214.25459,17.0258595 214.067842,16.7691027 C213.881607,16.5118324 213.616877,16.3059135 213.27519,16.1503189 C213.165911,16.1030757 213.021233,16.0681568 212.842694,16.0455622 C212.663642,16.021427 212.465607,16.0096162 212.24705,16.0096162 L210.613007,16.0096162 L210.613007,19.5605622 Z M219.76365,30.1682108 L226.953442,12.8787243 L229.42785,12.8787243 L236.710503,30.1682108 L233.162807,30.1682108 L231.295329,25.6816432 L225.178824,25.6816432 L223.264659,30.1682108 L219.76365,30.1682108 Z M226.345998,22.5985081 L230.034268,22.5985081 L228.21399,17.3642649 L226.345998,22.5985081 Z M238.43792,30.1682108 L238.43792,12.8787243 L241.658807,12.8787243 L241.658807,27.0373189 L246.934433,27.0373189 L246.934433,30.1682108 L238.43792,30.1682108 Z" id="Fill-8" fill="#4C4C4C" fill-rule="nonzero"></path>
                    <path d="M72.1444191,40.7009378 C71.9735757,40.1956405 71.8052974,39.8839378 71.635993,39.7704514 C71.5692974,39.7273162 71.4728452,39.6959919 71.3461235,39.6805865 C71.2512104,39.6636405 71.16348,39.6554243 71.0829322,39.6554243 C70.9346626,39.6554243 70.8602713,39.6138297 70.8602713,39.5332081 C70.8602713,39.4561811 70.9603148,39.4176676 71.16348,39.4176676 C71.4518104,39.4176676 71.7950365,39.4217757 72.1926452,39.4310189 C72.2552365,39.4392351 72.3219322,39.4438568 72.3958104,39.4438568 L72.9498974,39.4561811 C72.9591322,39.4489919 72.968367,39.4438568 72.9776017,39.4438568 L73.1043235,39.4438568 C73.168967,39.4438568 73.2269409,39.4392351 73.2802974,39.4310189 C73.6425061,39.4217757 73.984193,39.4176676 74.3099757,39.4176676 C74.503393,39.4176676 74.5998452,39.4561811 74.5998452,39.5332081 C74.5998452,39.6138297 74.5172452,39.6554243 74.348967,39.6554243 C74.1827409,39.6554243 74.0673061,39.6723703 74.0047148,39.7052351 C73.90108,39.7483703 73.8482365,39.8449108 73.8482365,39.9933162 C73.8482365,40.0611 73.8826104,40.2105324 73.9493061,40.4395595 L74.1524713,41.1939108 C74.2124974,41.3936676 74.3274191,41.7711 74.5059583,42.3221 L75.0390104,44.0213162 C75.4689409,45.3533703 75.76548,46.2633162 75.9322191,46.7537216 L75.9712104,46.7537216 L78.655967,39.9424784 C78.7785843,39.6266676 78.8935061,39.4700459 79.0017583,39.4700459 C79.0966713,39.4700459 79.2300626,39.6749378 79.4080887,40.0821541 L82.2898539,46.6576946 L82.3288452,46.6576946 C82.3837409,46.4574243 82.4894278,46.1025865 82.6474452,45.5901 L84.1686191,40.8036405 C84.2630191,40.5140189 84.3112452,40.2608568 84.3112452,40.0456946 C84.3112452,39.7843162 84.0870452,39.6554243 83.6412104,39.6554243 C83.482167,39.6554243 83.4036713,39.6138297 83.4036713,39.5332081 C83.4036713,39.4561811 83.5119235,39.4176676 83.7294539,39.4176676 C84.0218887,39.4176676 84.3394626,39.4217757 84.6826887,39.4310189 C84.7268104,39.4392351 84.7817061,39.4438568 84.8442974,39.4438568 L85.3178365,39.4561811 C85.335793,39.4489919 85.359393,39.4438568 85.3865843,39.4438568 L86.3192974,39.4176676 C86.4809061,39.4176676 86.5614539,39.452073 86.5614539,39.5198568 C86.5614539,39.6097216 86.4993757,39.6554243 86.3726539,39.6554243 C86.1782104,39.6554243 86.0166017,39.6775054 85.8857757,39.718073 C85.7375061,39.7704514 85.6036017,39.9234784 85.4861148,40.1776676 C85.4373757,40.2716405 85.3778626,40.4087486 85.3034713,40.5915595 L85.1074887,41.1040459 C84.9643496,41.4876405 84.7611843,42.0329919 84.5000452,42.7380459 C84.2794365,43.3373162 84.0270191,44.0475054 83.7438191,44.869127 L82.3421843,48.8719649 C82.2036626,49.2817486 82.067193,49.4866405 81.936367,49.4866405 C81.8363235,49.4866405 81.6957496,49.2704514 81.511567,48.8416676 L78.6303148,42.2918027 L78.6026104,42.2918027 L77.3861843,45.342073 L76.5396626,47.3663432 C76.2503061,48.0369919 76.0389322,48.5130189 75.8973322,48.7887757 C75.6690278,49.2529919 75.5022887,49.4866405 75.4037843,49.4866405 C75.3088713,49.4866405 75.2031843,49.3228297 75.0872365,49.0003432 L72.1444191,40.7009378 Z M86.0884278,42.4376405 C86.0884278,42.1480189 86.0832974,41.9210459 86.0750887,41.7556946 C86.0566191,41.4434784 85.8806452,41.2437216 85.5487061,41.1548838 L85.3450278,41.1302351 C85.2511409,41.1215054 85.15828,41.1173973 85.0684974,41.1173973 C84.9274104,41.1173973 84.8576365,41.0778568 84.8576365,41.0013432 C84.8576365,40.9304784 84.9510104,40.8929919 85.135193,40.8929919 L86.5614539,40.9186676 L90.22048,40.9186676 C90.2764017,40.9186676 90.3287322,40.9140459 90.3820887,40.9058297 L90.72788,40.8560189 C90.7468626,40.8560189 90.7786713,40.8472892 90.8294626,40.8298297 C90.8735843,40.8118568 90.9059061,40.8036405 90.9243757,40.8036405 C90.9777322,40.8036405 91.0054365,40.8380459 91.0054365,40.9058297 L90.9777322,41.0413973 C90.9777322,41.0650189 90.9726017,41.0871 90.96388,41.1040459 C90.9387409,41.2519378 90.9202713,41.4265324 90.9110365,41.6273162 L90.85768,42.2019378 C90.85768,42.283073 90.8530626,42.3359649 90.8433148,42.361127 L90.8294626,42.4119649 C90.8202278,42.4376405 90.810993,42.4551 90.8027843,42.4638297 C90.7786713,42.5146676 90.7468626,42.5398297 90.7001757,42.5398297 C90.6386104,42.5398297 90.6052626,42.494127 90.6052626,42.4011811 C90.6052626,42.3359649 90.6011583,42.2738297 90.5919235,42.2158027 C90.573967,42.1300459 90.5529322,42.0540459 90.5252278,41.9903703 C90.467767,41.8712351 90.3954278,41.7839378 90.314367,41.7295054 C90.1927757,41.6617216 89.9937148,41.6134514 89.7197496,41.5898297 C89.6756278,41.5816135 89.560193,41.5769919 89.3754974,41.5769919 L88.7798539,41.5508027 L87.8055843,41.5374514 C87.7532539,41.5374514 87.7250365,41.5723703 87.7250365,41.6396405 L87.7250365,44.3853973 C87.7250365,44.4660189 87.7532539,44.5055595 87.8055843,44.5055595 L88.874767,44.5055595 C89.1405235,44.5055595 89.3570278,44.4988838 89.5227409,44.4881 C89.7356539,44.4881 89.8762278,44.4839919 89.9429235,44.4752622 C90.2461322,44.449073 90.4395496,44.394127 90.5252278,44.3093973 L90.63348,44.2000189 C90.6678539,44.1748568 90.6960713,44.1609919 90.7145409,44.1609919 C90.7812365,44.1609919 90.8161235,44.2025865 90.8161235,44.2832081 L90.6729843,45.5207757 L90.6611843,45.8340189 C90.6611843,45.8976946 90.6560539,45.950073 90.6478452,45.9932081 C90.6196278,46.0527757 90.5826887,46.083073 90.539593,46.083073 C90.4626365,46.083073 90.4236452,46.0527757 90.4236452,45.9932081 L90.3820887,45.5901 C90.3010278,45.3353973 90.0778539,45.1916135 89.7053843,45.1566946 C89.6520278,45.1484784 89.5371061,45.1438568 89.3621583,45.1438568 L88.7798539,45.1197216 L87.7922452,45.1068838 C87.7481235,45.1068838 87.7250365,45.1438568 87.7250365,45.2203703 L87.7250365,47.7561 C87.7347843,48.1335324 87.8589409,48.384127 88.09648,48.5012081 C88.30888,48.6254784 88.7362452,48.6865865 89.3754974,48.6865865 C89.5971322,48.6865865 89.7910626,48.6778568 89.9572887,48.6629649 C90.1953409,48.6449919 90.3836278,48.6033973 90.5252278,48.5407486 C90.7904713,48.4298297 90.96388,48.1556135 91.046993,47.717073 C91.0767496,47.6061541 91.1249757,47.5522351 91.187567,47.5522351 C91.2337409,47.5522351 91.2634974,47.5815054 91.281967,47.641073 C91.2912017,47.6729108 91.2963322,47.7324784 91.2963322,47.8125865 C91.2963322,48.2726946 91.2409235,48.6804243 91.1347235,49.0378297 C91.0741843,49.2293703 90.85768,49.3259108 90.4770017,49.3259108 C89.5853322,49.3259108 88.8378278,49.3120459 88.2396191,49.2884243 L86.5758191,49.2622351 L86.1299843,49.275073 C85.7426365,49.2925324 85.4609757,49.3012622 85.2834626,49.3012622 C85.1310887,49.3012622 85.0546452,49.2622351 85.0546452,49.1852081 C85.0546452,49.1045865 85.1167235,49.0629919 85.2434452,49.0629919 C85.4194191,49.0629919 85.5651235,49.0506676 85.6759409,49.0270459 C85.8693583,48.9828838 85.9894104,48.7872351 86.0350713,48.4385595 C86.0607235,48.2290459 86.079193,47.9024514 86.0884278,47.4556946 L86.0884278,42.4376405 Z M99.7677061,41.5769919 L97.9561496,41.6134514 C97.3251061,41.6232081 96.9331409,41.7361811 96.7802539,41.9523703 C96.7202278,42.0258027 96.674567,42.0997486 96.6371148,42.1757486 C96.6196713,42.2019378 96.6053061,42.2306946 96.5960713,42.2656135 L96.5704191,42.3359649 C96.5427148,42.4289108 96.4944887,42.4771811 96.42728,42.4771811 C96.3554539,42.4771811 96.3190278,42.4135054 96.3190278,42.2918027 C96.3190278,42.2476405 96.33288,42.1562351 96.3600713,42.0175865 C96.3785409,41.8974243 96.4047061,41.7556946 96.4411322,41.5898297 L96.5842713,40.9448568 C96.6094104,40.8077486 96.6560974,40.7399649 96.7186887,40.7399649 L97.0578104,40.8298297 C97.1193757,40.8472892 97.181967,40.860127 97.2471235,40.8668027 C97.5703409,40.9017216 97.9761583,40.9186676 98.4635496,40.9186676 L103.414419,40.9186676 C103.585263,40.9186676 103.749437,40.9140459 103.905915,40.9058297 C104.019297,40.8965865 104.130115,40.8837486 104.238367,40.8668027 L104.57595,40.8159649 C104.64008,40.8159649 104.67035,40.8950459 104.67035,41.0521811 L104.64521,42.4011811 C104.626741,42.5177486 104.586723,42.5788568 104.529263,42.5788568 C104.448202,42.5788568 104.402541,42.5049108 104.392793,42.361127 L104.380993,42.2394243 C104.36355,42.0648297 104.256837,41.9277216 104.062906,41.8250189 C103.813567,41.6838027 103.439558,41.6093432 102.938828,41.601127 L101.403802,41.5769919 L101.403802,46.0692081 C101.403802,46.6366405 101.408932,47.0982892 101.417141,47.4556946 C101.427402,47.8942351 101.445871,48.2249378 101.473063,48.4508838 C101.517184,48.800073 101.674689,48.9911 101.939932,49.0270459 C102.105645,49.0506676 102.31548,49.0629919 102.567384,49.0629919 C102.694619,49.0629919 102.756184,49.1045865 102.756184,49.1852081 C102.756184,49.2622351 102.680767,49.3012622 102.52788,49.3012622 L100.268437,49.2622351 C100.210976,49.2704514 100.141715,49.275073 100.058089,49.275073 L98.96428,49.3012622 C98.8052365,49.3012622 98.7267409,49.2622351 98.7267409,49.1852081 C98.7267409,49.1045865 98.7934365,49.0629919 98.9227235,49.0629919 C99.1166539,49.0629919 99.2618452,49.0506676 99.3567583,49.0270459 C99.5506887,48.9828838 99.6681757,48.7872351 99.7143496,48.4385595 C99.7415409,48.2290459 99.7600104,47.9024514 99.7677061,47.4556946 L99.7677061,41.5769919 Z M106.909271,42.4376405 C106.909271,42.1480189 106.904654,41.9210459 106.894906,41.7556946 C106.879002,41.4434784 106.701489,41.2437216 106.369037,41.1548838 L106.165871,41.1302351 C106.071471,41.1215054 105.979123,41.1173973 105.889341,41.1173973 C105.748254,41.1173973 105.678993,41.0778568 105.678993,41.0013432 C105.678993,40.9304784 105.770828,40.8929919 105.956037,40.8929919 L108.033863,40.9186676 C108.152889,40.9099378 108.338097,40.9058297 108.586923,40.9058297 L109.512967,40.8929919 C109.985993,40.8929919 110.387706,40.9212351 110.718619,40.9751541 C111.163428,41.0521811 111.532306,41.1826135 111.825767,41.3654243 C112.03868,41.5051 112.223376,41.6925324 112.379854,41.9277216 C112.583532,42.2332622 112.684089,42.5578027 112.684089,42.8972351 C112.684089,43.6793162 112.121793,44.4988838 110.99515,45.3549108 L111.400967,45.8088568 C111.540002,45.9824243 111.664158,46.1287757 111.773437,46.2412351 L112.47015,47.0397486 C112.948306,47.5815054 113.346428,48.0025865 113.673237,48.3055595 C113.965671,48.5838838 114.243228,48.7821 114.503854,48.8981541 C114.59415,48.9412892 114.685471,48.9741541 114.780384,49.0003432 L115.127202,49.0629919 L115.263158,49.0629919 C115.364741,49.0629919 115.417071,49.1045865 115.417071,49.1852081 C115.417071,49.2622351 115.338576,49.3012622 115.179532,49.3012622 L114.016463,49.3012622 C113.434671,49.3012622 112.991915,49.2247486 112.684089,49.0768568 C112.437315,48.9659378 112.181819,48.7692622 111.913497,48.4883703 C111.698532,48.2726946 111.403532,47.9235054 111.029523,47.4428568 C110.916141,47.3139649 110.793523,47.1593973 110.662697,46.976073 L110.055254,46.1523973 C109.972141,46.0399378 109.91468,45.9629108 109.877741,45.9305595 C109.82028,45.874073 109.746402,45.8478838 109.656106,45.8478838 L108.559732,45.8211811 C108.497141,45.8211811 108.464819,45.8535324 108.464819,45.9177216 L108.464819,46.0692081 C108.464819,46.6366405 108.469437,47.1023973 108.479184,47.4690459 C108.487906,47.8973162 108.506376,48.2198027 108.532028,48.4385595 C108.578202,48.7954514 108.73468,48.9911 109.007106,49.0270459 C109.187184,49.0506676 109.386245,49.0629919 109.60121,49.0629919 C109.700228,49.0629919 109.750506,49.1045865 109.750506,49.1852081 C109.750506,49.2622351 109.667906,49.3012622 109.499628,49.3012622 L107.343306,49.2622351 C107.297132,49.2704514 107.236593,49.275073 107.160663,49.275073 L106.105845,49.3012622 C105.950906,49.3012622 105.874976,49.2622351 105.874976,49.1852081 C105.874976,49.1045865 105.937567,49.0629919 106.064289,49.0629919 C106.240263,49.0629919 106.384941,49.0506676 106.498323,49.0270459 C106.692254,48.9828838 106.809741,48.7872351 106.856428,48.4385595 C106.884132,48.2290459 106.900037,47.9024514 106.909271,47.4556946 L106.909271,42.4376405 Z M108.464819,44.9713162 C108.464819,45.0693973 108.501245,45.1346135 108.573071,45.1695324 C108.804454,45.2373162 109.111254,45.2722351 109.499628,45.2722351 C109.89621,45.2722351 110.181976,45.2136946 110.35795,45.0935324 C110.579071,44.945127 110.75915,44.7541 110.900237,44.5183973 C111.066976,44.2221 111.149576,43.862127 111.149576,43.4466946 C111.149576,42.7488297 110.935123,42.2214514 110.501089,41.8625054 C110.159402,41.599073 109.757689,41.468127 109.298002,41.468127 C108.945541,41.468127 108.705437,41.4830189 108.573071,41.5117757 C108.501245,41.5374514 108.464819,41.5898297 108.464819,41.6663432 L108.464819,44.9713162 Z M115.659741,42.4376405 C115.659741,42.1480189 115.655123,41.9210459 115.646402,41.7556946 C115.627932,41.4434784 115.451958,41.2437216 115.120532,41.1548838 L114.916341,41.1302351 C114.822454,41.1215054 114.729593,41.1173973 114.63981,41.1173973 C114.498723,41.1173973 114.429463,41.0778568 114.429463,41.0013432 C114.429463,40.9304784 114.522323,40.8929919 114.706506,40.8929919 L116.132767,40.9186676 L119.791793,40.9186676 C119.847715,40.9186676 119.900045,40.9140459 119.953402,40.9058297 L120.299706,40.8560189 C120.318176,40.8560189 120.350497,40.8472892 120.400776,40.8298297 C120.444897,40.8118568 120.477219,40.8036405 120.495689,40.8036405 C120.549045,40.8036405 120.57675,40.8380459 120.57675,40.9058297 L120.549045,41.0413973 C120.549045,41.0650189 120.543915,41.0871 120.53468,41.1040459 C120.510054,41.2519378 120.491584,41.4265324 120.48235,41.6273162 L120.428993,42.2019378 C120.428993,42.283073 120.423863,42.3359649 120.414628,42.361127 L120.400776,42.4119649 C120.392567,42.4376405 120.382306,42.4551 120.374097,42.4638297 C120.350497,42.5146676 120.318176,42.5398297 120.271489,42.5398297 C120.209923,42.5398297 120.177089,42.494127 120.177089,42.4011811 C120.177089,42.3359649 120.172471,42.2738297 120.163237,42.2158027 C120.144767,42.1300459 120.124245,42.0540459 120.096541,41.9903703 C120.03908,41.8712351 119.967254,41.7839378 119.88568,41.7295054 C119.764089,41.6617216 119.566054,41.6134514 119.291063,41.5898297 C119.247454,41.5816135 119.131506,41.5769919 118.94681,41.5769919 L118.35168,41.5508027 L117.377923,41.5374514 C117.324567,41.5374514 117.296863,41.5723703 117.296863,41.6396405 L117.296863,44.3853973 C117.296863,44.4660189 117.324567,44.5055595 117.377923,44.5055595 L118.44608,44.5055595 C118.711837,44.5055595 118.928341,44.4988838 119.094054,44.4881 C119.30748,44.4881 119.447541,44.4839919 119.51475,44.4752622 C119.816419,44.449073 120.010863,44.394127 120.096541,44.3093973 L120.204793,44.2000189 C120.23968,44.1748568 120.267384,44.1609919 120.285854,44.1609919 C120.35255,44.1609919 120.387437,44.2025865 120.387437,44.2832081 L120.243784,45.5207757 L120.232497,45.8340189 C120.232497,45.8976946 120.22788,45.950073 120.218132,45.9932081 C120.191454,46.0527757 120.154002,46.083073 120.10988,46.083073 C120.03395,46.083073 119.994958,46.0527757 119.994958,45.9932081 L119.953402,45.5901 C119.872341,45.3353973 119.649167,45.1916135 119.276697,45.1566946 C119.223341,45.1484784 119.108419,45.1438568 118.932445,45.1438568 L118.35168,45.1197216 L117.363558,45.1068838 C117.319437,45.1068838 117.296863,45.1438568 117.296863,45.2203703 L117.296863,47.7561 C117.306097,48.1335324 117.430254,48.384127 117.667793,48.5012081 C117.880193,48.6254784 118.307558,48.6865865 118.94681,48.6865865 C119.168445,48.6865865 119.362376,48.6778568 119.529115,48.6629649 C119.766654,48.6449919 119.955454,48.6033973 120.096541,48.5407486 C120.361271,48.4298297 120.53468,48.1556135 120.618306,47.717073 C120.648063,47.6061541 120.696289,47.5522351 120.75888,47.5522351 C120.805567,47.5522351 120.83481,47.5815054 120.853793,47.641073 C120.863028,47.6729108 120.868158,47.7324784 120.868158,47.8125865 C120.868158,48.2726946 120.812237,48.6804243 120.705523,49.0378297 C120.645497,49.2293703 120.428993,49.3259108 120.047289,49.3259108 C119.156645,49.3259108 118.409141,49.3120459 117.810932,49.2884243 L116.147132,49.2622351 L115.701297,49.275073 C115.31395,49.2925324 115.032289,49.3012622 114.854776,49.3012622 C114.702402,49.3012622 114.625445,49.2622351 114.625445,49.1852081 C114.625445,49.1045865 114.688037,49.0629919 114.814758,49.0629919 C114.990219,49.0629919 115.136437,49.0506676 115.247254,49.0270459 C115.440671,48.9828838 115.561237,48.7872351 115.606897,48.4385595 C115.632037,48.2290459 115.650506,47.9024514 115.659741,47.4556946 L115.659741,42.4376405 Z M124.910941,46.5036405 C124.856045,46.5036405 124.821671,46.5298297 124.802689,46.5816946 L124.154202,48.0744784 C124.032097,48.3332892 123.972071,48.5602622 123.972071,48.7518027 C123.972071,48.9592622 124.13368,49.0629919 124.456897,49.0629919 L124.63441,49.0629919 C124.754463,49.0629919 124.817054,49.1045865 124.817054,49.1852081 C124.817054,49.2622351 124.749845,49.3012622 124.621071,49.3012622 L124.288619,49.3012622 L123.586776,49.2622351 L122.753593,49.275073 C122.411393,49.2925324 122.111263,49.3012622 121.855767,49.3012622 C121.705445,49.3012622 121.631054,49.2622351 121.631054,49.1852081 C121.631054,49.1045865 121.675689,49.0629919 121.765471,49.0629919 L122.132297,49.0506676 C122.536063,48.9911 122.873645,48.667073 123.138889,48.0744784 L126.324376,41.0778568 C126.455715,40.7795054 126.575767,40.6316135 126.688123,40.6316135 C126.806637,40.6316135 126.926689,40.7507486 127.049306,40.9890189 L129.37288,46.1395595 C129.717132,46.8975054 129.976219,47.4649378 130.151167,47.8387757 C130.363567,48.2819378 130.566732,48.5977486 130.76015,48.7887757 C130.896619,48.9217757 131.037706,49.0003432 131.187515,49.0270459 C131.372723,49.0506676 131.525097,49.0629919 131.647715,49.0629919 C131.755967,49.0629919 131.808297,49.1045865 131.808297,49.1852081 C131.808297,49.2273162 131.775976,49.2571 131.71441,49.275073 C131.651819,49.2925324 131.506628,49.3012622 131.282428,49.3012622 L128.861376,49.275073 L128.792115,49.2622351 C128.747993,49.2622351 128.708489,49.2571 128.678732,49.2483703 C128.614602,49.2401541 128.583819,49.218073 128.583819,49.1852081 C128.583819,49.1138297 128.63461,49.0727486 128.738758,49.0629919 C128.784419,49.0547757 128.819306,49.0311541 128.84701,48.9880189 C128.874715,48.9371811 128.874715,48.8786405 128.84701,48.8149649 L127.908141,46.5816946 C127.889671,46.5298297 127.84555,46.5036405 127.778854,46.5036405 L124.910941,46.5036405 Z M127.514637,45.8910189 C127.573123,45.8910189 127.593645,45.8673973 127.575689,45.8211811 L126.411593,42.9603973 C126.411593,42.9521811 126.406463,42.9455054 126.398254,42.9367757 C126.384915,42.9095595 126.375167,42.8972351 126.365932,42.8972351 C126.347463,42.8972351 126.333097,42.9095595 126.324376,42.9367757 C126.315141,42.9455054 126.31001,42.9521811 126.31001,42.9603973 L125.121802,45.8088568 C125.094097,45.8627757 125.107437,45.8910189 125.160793,45.8910189 L127.514637,45.8910189 Z M134.446367,49.4476135 C134.049784,49.4476135 133.697323,49.4229649 133.392576,49.3772622 C133.020619,49.3331 132.713306,49.2622351 132.463967,49.1595324 C132.307489,49.0963703 132.228993,48.9674784 132.228993,48.7764514 C132.228993,48.5253432 132.238228,48.2249378 132.254132,47.8762622 C132.263367,47.8166946 132.267471,47.7561 132.267471,47.6908838 L132.295689,47.3031811 C132.295689,47.1116405 132.34648,47.0151 132.450115,47.0151 C132.496802,47.0151 132.533228,47.0371811 132.558367,47.0787757 C132.568115,47.1049649 132.572219,47.1414243 132.572219,47.1938027 C132.572219,47.3683973 132.611723,47.5619919 132.688167,47.7735595 C132.805654,48.1571541 133.06628,48.4442081 133.473123,48.6367757 C133.805576,48.7939108 134.188819,48.8719649 134.622341,48.8719649 C135.748984,48.8719649 136.311793,48.3995324 136.311793,47.4556946 C136.311793,47.1701811 136.247663,46.9236946 136.115297,46.7146946 C135.936245,46.4332892 135.601228,46.159073 135.108706,45.8910189 L134.405323,45.4945865 C133.701428,45.1130459 133.203263,44.7166135 132.905184,44.3093973 C132.630706,43.9258027 132.491671,43.4811 132.491671,42.9742622 C132.491671,42.3113162 132.792315,41.7669919 133.392576,41.3392351 C133.973854,40.9407486 134.698784,40.7399649 135.568906,40.7399649 C135.924445,40.7399649 136.270237,40.7620459 136.602689,40.8036405 C136.87255,40.8298297 137.105984,40.8668027 137.299402,40.9186676 C137.40868,40.9489649 137.461523,40.9972351 137.461523,41.0650189 L137.422532,42.4011811 C137.422532,42.6338027 137.369176,42.7513973 137.265028,42.7513973 C137.18448,42.7513973 137.146002,42.6836135 137.146002,42.5531811 C137.146002,42.5177486 137.140871,42.4812892 137.131123,42.4376405 C137.121889,42.3791 137.10855,42.3154243 137.09008,42.2527757 C137.028002,42.0869108 136.940271,41.9456946 136.826889,41.8250189 C136.704271,41.6838027 136.556002,41.5703162 136.381054,41.4809649 C136.122993,41.3613162 135.817732,41.3022622 135.467323,41.3022622 C135.007637,41.3022622 134.619776,41.4070189 134.303741,41.6134514 C133.971289,41.8322081 133.80301,42.1238838 133.80301,42.4900189 C133.80301,42.7626946 133.881506,42.9978838 134.04055,43.1976405 C134.225758,43.4312892 134.576167,43.6834243 135.095367,43.9561 L135.596097,44.2138838 C136.362584,44.6164784 136.914619,45.0432081 137.251689,45.4945865 C137.549254,45.9043703 137.699063,46.3752622 137.699063,46.9067486 C137.699063,47.7545595 137.292732,48.4467757 136.481097,48.9880189 C136.219445,49.1615865 135.886993,49.2884243 135.481176,49.3644243 C135.187715,49.4188568 134.843976,49.4476135 134.446367,49.4476135 Z M140.072402,44.1111811 C140.072402,42.6558838 140.067271,41.8691811 140.059063,41.7556946 C140.04008,41.4434784 139.864619,41.2437216 139.530115,41.1548838 L139.329002,41.1302351 C139.240758,41.1215054 139.154054,41.1173973 139.063245,41.1173973 C138.924723,41.1173973 138.85341,41.0778568 138.85341,41.0013432 C138.85341,40.9304784 138.943193,40.8929919 139.119167,40.8929919 L141.249837,40.9186676 L142.511923,40.8929919 C142.689437,40.8929919 142.77768,40.9304784 142.77768,41.0013432 C142.77768,41.0778568 142.710471,41.1173973 142.581184,41.1173973 C142.496019,41.1173973 142.375454,41.1302351 142.221541,41.1548838 C141.951167,41.1980189 141.803923,41.3988027 141.776219,41.7556946 L141.748002,42.4376405 L141.748002,45.6691811 C141.748002,46.4332892 141.82855,47.0310189 141.985541,47.4556946 C142.124576,47.8218297 142.355445,48.1253162 142.676097,48.3620459 C142.913637,48.5448568 143.186063,48.6711811 143.492863,48.7389649 C143.615993,48.7625865 143.74015,48.7805595 143.865332,48.7887757 C143.933567,48.7975054 143.994106,48.8026405 144.04695,48.8026405 L144.217793,48.8026405 C144.511767,48.8026405 144.785732,48.7610459 145.041741,48.6737486 C145.358289,48.5782351 145.62661,48.4231541 145.847219,48.2156946 C146.155045,47.9455865 146.355645,47.5645595 146.454663,47.0659378 C146.495706,46.8569378 146.526489,46.6119919 146.544958,46.3311 C146.551628,46.1313432 146.556245,45.8561 146.556245,45.5079378 L146.556245,44.1111811 C146.556245,43.3619649 146.551628,42.8037757 146.544958,42.4376405 L146.530593,41.7556946 C146.507506,41.4434784 146.336663,41.2437216 146.016523,41.1548838 L145.805663,41.1302351 C145.725115,41.1215054 145.646619,41.1173973 145.570689,41.1173973 C145.434219,41.1173973 145.367523,41.0778568 145.367523,41.0013432 C145.367523,40.9304784 145.448071,40.8929919 145.610193,40.8929919 L146.930767,40.9186676 L148.490419,40.8929919 C148.658697,40.8929919 148.742323,40.9304784 148.742323,41.0013432 C148.742323,41.0778568 148.673063,41.1173973 148.538645,41.1173973 C148.45348,41.1173973 148.331376,41.1302351 148.173871,41.1548838 C147.907089,41.1980189 147.761384,41.3988027 147.73368,41.7556946 L147.719828,42.4376405 C147.709567,42.8037757 147.705463,43.3619649 147.705463,44.1111811 L147.705463,45.2984243 C147.705463,45.6563432 147.693663,45.9654784 147.666471,46.2283973 C147.634663,46.5709108 147.583871,46.8738838 147.50948,47.1414243 C147.324784,47.7889649 147.004132,48.2927216 146.544958,48.650127 C146.15761,48.9505324 145.71588,49.1682622 145.223871,49.3012622 C144.854993,49.3993432 144.434297,49.4476135 143.966915,49.4476135 L143.702697,49.4476135 C143.589315,49.4476135 143.483628,49.4424784 143.38461,49.4342622 C143.124497,49.4162892 142.883367,49.3859919 142.662245,49.3382351 C142.061984,49.2273162 141.567923,49.0116405 141.180576,48.6865865 C140.829654,48.3995324 140.566463,48.0436676 140.390489,47.6282351 C140.179115,47.1219108 140.072402,46.4918297 140.072402,45.7451811 L140.072402,44.1111811 Z M151.121819,42.4376405 C151.121819,42.1480189 151.117715,41.9210459 151.10848,41.7556946 C151.09155,41.4434784 150.91455,41.2437216 150.581584,41.1548838 L150.378419,41.1302351 C150.283506,41.1215054 150.191671,41.1173973 150.101889,41.1173973 C149.961315,41.1173973 149.892054,41.0778568 149.892054,41.0013432 C149.892054,40.9304784 149.983376,40.8929919 150.168584,40.8929919 L152.245897,40.9186676 C152.366463,40.9099378 152.550645,40.9058297 152.799984,40.9058297 L153.725515,40.8929919 C154.199054,40.8929919 154.600254,40.9212351 154.930654,40.9751541 C155.375976,41.0521811 155.745367,41.1826135 156.038828,41.3654243 C156.251228,41.5051 156.435923,41.6925324 156.592402,41.9277216 C156.79608,42.2332622 156.897663,42.5578027 156.897663,42.8972351 C156.897663,43.6793162 156.334341,44.4988838 155.207184,45.3549108 L155.614541,45.8088568 C155.752037,45.9824243 155.877219,46.1287757 155.985471,46.2412351 L156.682697,47.0397486 C157.160854,47.5815054 157.560002,48.0025865 157.885271,48.3055595 C158.178219,48.5838838 158.455776,48.7821 158.715889,48.8981541 C158.805671,48.9412892 158.899045,48.9741541 158.993445,49.0003432 L159.33975,49.0629919 L159.475706,49.0629919 C159.577289,49.0629919 159.630645,49.1045865 159.630645,49.1852081 C159.630645,49.2622351 159.551637,49.3012622 159.39208,49.3012622 L158.22901,49.3012622 C157.647219,49.3012622 157.204463,49.2247486 156.897663,49.0768568 C156.650376,48.9659378 156.394367,48.7692622 156.126045,48.4883703 C155.91108,48.2726946 155.61608,47.9235054 155.242071,47.4428568 C155.128689,47.3139649 155.007097,47.1593973 154.875245,46.976073 L154.268315,46.1523973 C154.184689,46.0399378 154.127228,45.9629108 154.090289,45.9305595 C154.032828,45.874073 153.95895,45.8478838 153.868654,45.8478838 L152.77228,45.8211811 C152.709689,45.8211811 152.677367,45.8535324 152.677367,45.9177216 L152.677367,46.0692081 C152.677367,46.6366405 152.682497,47.1023973 152.691732,47.4690459 C152.700967,47.8973162 152.718923,48.2198027 152.745089,48.4385595 C152.79075,48.7954514 152.947228,48.9911 153.22068,49.0270459 C153.400758,49.0506676 153.598793,49.0629919 153.813758,49.0629919 C153.912263,49.0629919 153.96408,49.1045865 153.96408,49.1852081 C153.96408,49.2622351 153.880454,49.3012622 153.712176,49.3012622 L151.555854,49.2622351 C151.509167,49.2704514 151.449141,49.275073 151.374237,49.275073 L150.318393,49.3012622 C150.163454,49.3012622 150.087523,49.2622351 150.087523,49.1852081 C150.087523,49.1045865 150.150115,49.0629919 150.276837,49.0629919 C150.45281,49.0629919 150.598515,49.0506676 150.710871,49.0270459 C150.904802,48.9828838 151.022289,48.7872351 151.068463,48.4385595 C151.09668,48.2290459 151.112584,47.9024514 151.121819,47.4556946 L151.121819,42.4376405 Z M152.677367,44.9713162 C152.677367,45.0693973 152.714819,45.1346135 152.785619,45.1695324 C153.016489,45.2373162 153.323802,45.2722351 153.712176,45.2722351 C154.108758,45.2722351 154.39555,45.2136946 154.570497,45.0935324 C154.792132,44.945127 154.97221,44.7541 155.112784,44.5183973 C155.279523,44.2221 155.362123,43.862127 155.362123,43.4466946 C155.362123,42.7488297 155.147671,42.2214514 154.713637,41.8625054 C154.37195,41.599073 153.970237,41.468127 153.51055,41.468127 C153.158089,41.468127 152.917471,41.4830189 152.785619,41.5117757 C152.714819,41.5374514 152.677367,41.5898297 152.677367,41.6663432 L152.677367,44.9713162 Z M159.873315,42.4376405 C159.873315,42.1480189 159.868184,41.9210459 159.85895,41.7556946 C159.84048,41.4434784 159.665019,41.2437216 159.332054,41.1548838 L159.129915,41.1302351 C159.035002,41.1215054 158.942141,41.1173973 158.852358,41.1173973 C158.711784,41.1173973 158.642523,41.0778568 158.642523,41.0013432 C158.642523,40.9304784 158.734871,40.8929919 158.919054,40.8929919 L160.345315,40.9186676 L164.004341,40.9186676 C164.059237,40.9186676 164.113619,40.9140459 164.16595,40.9058297 L164.511741,40.8560189 C164.530723,40.8560189 164.563558,40.8472892 164.613323,40.8298297 C164.657445,40.8118568 164.689767,40.8036405 164.709263,40.8036405 C164.761593,40.8036405 164.788784,40.8380459 164.788784,40.9058297 L164.761593,41.0413973 C164.761593,41.0650189 164.756463,41.0871 164.748254,41.1040459 C164.721576,41.2519378 164.704132,41.4265324 164.694897,41.6273162 L164.642054,42.2019378 C164.642054,42.283073 164.637437,42.3359649 164.627689,42.361127 L164.613323,42.4119649 C164.605115,42.4376405 164.59588,42.4551 164.586645,42.4638297 C164.563558,42.5146676 164.530723,42.5398297 164.484037,42.5398297 C164.422471,42.5398297 164.39015,42.494127 164.39015,42.4011811 C164.39015,42.3359649 164.386045,42.2738297 164.375784,42.2158027 C164.357828,42.1300459 164.336793,42.0540459 164.309089,41.9903703 C164.251628,41.8712351 164.180315,41.7839378 164.099254,41.7295054 C163.976637,41.6617216 163.778602,41.6134514 163.50361,41.5898297 C163.460002,41.5816135 163.344054,41.5769919 163.160384,41.5769919 L162.564228,41.5508027 L161.589445,41.5374514 C161.537115,41.5374514 161.50941,41.5723703 161.50941,41.6396405 L161.50941,44.3853973 C161.50941,44.4660189 161.537115,44.5055595 161.589445,44.5055595 L162.658628,44.5055595 C162.924384,44.5055595 163.140889,44.4988838 163.307628,44.4881 C163.519002,44.4881 163.660089,44.4839919 163.726784,44.4752622 C164.029993,44.449073 164.22341,44.394127 164.309089,44.3093973 L164.417854,44.2000189 C164.452741,44.1748568 164.479932,44.1609919 164.498402,44.1609919 C164.565097,44.1609919 164.599984,44.2025865 164.599984,44.2832081 L164.456845,45.5207757 L164.445045,45.8340189 C164.445045,45.8976946 164.440941,45.950073 164.431706,45.9932081 C164.403489,46.0527757 164.36655,46.083073 164.323454,46.083073 C164.24701,46.083073 164.207506,46.0527757 164.207506,45.9932081 L164.16595,45.5901 C164.084889,45.3353973 163.861715,45.1916135 163.489245,45.1566946 C163.436915,45.1484784 163.320967,45.1438568 163.146019,45.1438568 L162.564228,45.1197216 L161.576619,45.1068838 C161.53301,45.1068838 161.50941,45.1438568 161.50941,45.2203703 L161.50941,47.7561 C161.518645,48.1335324 161.643828,48.384127 161.880341,48.5012081 C162.093767,48.6254784 162.520619,48.6865865 163.160384,48.6865865 C163.380993,48.6865865 163.575437,48.6778568 163.74115,48.6629649 C163.979202,48.6449919 164.168515,48.6033973 164.309089,48.5407486 C164.574845,48.4298297 164.748254,48.1556135 164.830854,47.717073 C164.86061,47.6061541 164.90935,47.5522351 164.971428,47.5522351 C165.017602,47.5522351 165.047358,47.5815054 165.065828,47.641073 C165.075576,47.6729108 165.080193,47.7324784 165.080193,47.8125865 C165.080193,48.2726946 165.024784,48.6804243 164.918584,49.0378297 C164.858045,49.2293703 164.642054,49.3259108 164.260863,49.3259108 C163.370219,49.3259108 162.622202,49.3120459 162.024506,49.2884243 L160.35968,49.2622351 L159.914871,49.275073 C159.526497,49.2925324 159.244837,49.3012622 159.067323,49.3012622 C158.91495,49.3012622 158.838506,49.2622351 158.838506,49.1852081 C158.838506,49.1045865 158.900584,49.0629919 159.028332,49.0629919 C159.20328,49.0629919 159.348984,49.0506676 159.459802,49.0270459 C159.653219,48.9828838 159.773271,48.7872351 159.818932,48.4385595 C159.84561,48.2290459 159.863054,47.9024514 159.873315,47.4556946 L159.873315,42.4376405 Z M173.255541,46.4142892 C173.255541,46.1416135 173.230915,45.9156676 173.178584,45.7318297 C173.14421,45.608073 173.07495,45.4463162 172.976445,45.2465595 C172.961567,45.2049649 172.854854,45.0416676 172.66041,44.7623162 C172.491619,44.5009378 172.279732,44.1805054 172.015515,43.7969108 L170.800115,42.0473703 C170.488697,41.6273162 170.224993,41.3654243 170.008489,41.2632351 C169.823793,41.1651541 169.653976,41.1173973 169.503654,41.1173973 C169.38001,41.1173973 169.317932,41.0778568 169.317932,41.0013432 C169.317932,40.9304784 169.399506,40.8929919 169.555984,40.8929919 L171.329063,40.9186676 L172.464941,40.8929919 C172.586532,40.8929919 172.646045,40.9304784 172.646045,41.0013432 C172.646045,41.0455054 172.621419,41.0732351 172.573193,41.0901811 L172.368489,41.1410189 C172.256132,41.1672081 172.200723,41.2257486 172.200723,41.3156135 C172.200723,41.4003432 172.252541,41.5246135 172.355663,41.6899649 L174.233402,44.7232892 C174.299584,44.8383162 174.345245,44.9127757 174.377567,44.9476946 L175.277958,43.4857216 C175.51601,43.0841541 175.710454,42.7683432 175.855645,42.5398297 L176.061376,42.1757486 C176.130123,42.0776676 176.170654,42.0083432 176.19015,41.9652081 C176.30815,41.732073 176.365097,41.5359108 176.365097,41.3792892 C176.365097,41.2462892 176.278906,41.1631 176.108576,41.1302351 L175.954663,41.0901811 C175.908489,41.0732351 175.885402,41.0455054 175.885402,41.0013432 C175.885402,40.9304784 175.954663,40.8929919 176.088567,40.8929919 L177.00948,40.9186676 L178.58401,40.8929919 C178.734332,40.8929919 178.80821,40.9253432 178.80821,40.9890189 C178.80821,41.0732351 178.729202,41.1173973 178.568619,41.1173973 C178.422402,41.1173973 178.246941,41.1605324 178.042237,41.2493703 C177.849845,41.335127 177.637445,41.5071541 177.40555,41.7685324 C177.316793,41.8732892 177.14595,42.1023162 176.893532,42.4509919 C176.671897,42.7668027 176.430254,43.1283162 176.161932,43.5355324 C175.882837,43.9453162 175.641706,44.3119649 175.439567,44.6344514 C175.227167,44.9826135 175.093776,45.2162622 175.040419,45.3287216 C174.964489,45.5033162 174.916263,45.6943432 174.89728,45.9043703 C174.89061,45.9721541 174.88548,46.0594514 174.88548,46.1662622 L174.88548,47.7735595 L174.911132,48.4385595 C174.942941,48.7872351 175.10968,48.9828838 175.411863,49.0270459 C175.597071,49.0506676 175.800237,49.0629919 176.021871,49.0629919 C176.160393,49.0629919 176.231706,49.1045865 176.231706,49.1852081 C176.231706,49.2622351 176.143463,49.3012622 175.96595,49.3012622 L173.747037,49.2622351 C173.694706,49.2704514 173.62801,49.275073 173.546437,49.275073 L172.47828,49.3012622 C172.299741,49.3012622 172.212523,49.2622351 172.212523,49.1852081 C172.212523,49.1045865 172.279732,49.0629919 172.409019,49.0629919 C172.586532,49.0629919 172.727106,49.0506676 172.836384,49.0270459 C173.057506,48.9828838 173.178584,48.7872351 173.207315,48.4385595 C173.230915,48.2377757 173.245793,48.0174784 173.255541,47.7735595 L173.255541,46.4142892 Z M184.026889,49.4476135 C183.179341,49.4476135 182.422089,49.3094784 181.755132,49.0378297 C181.145123,48.7954514 180.630541,48.4508838 180.206254,48.0051541 C179.818906,47.6035865 179.521854,47.1378297 179.319715,46.6063432 C179.134506,46.1133703 179.043184,45.608073 179.043184,45.0935324 C179.043184,44.5861811 179.134506,44.0932081 179.319715,43.6115324 C179.521854,43.081073 179.818906,42.6101811 180.206254,42.2019378 C180.640289,41.751073 181.171289,41.4029108 181.801306,41.1548838 C182.491863,40.877073 183.276819,40.7399649 184.155663,40.7399649 C185.687097,40.7399649 186.900445,41.1148297 187.793654,41.8625054 C188.690967,42.6117216 189.138341,43.6228297 189.138341,44.8953162 C189.138341,46.2032351 188.680706,47.2795595 187.764923,48.1268568 C186.814254,49.0075324 185.569097,49.4476135 184.026889,49.4476135 Z M184.52608,48.8416676 C184.80261,48.8416676 185.069906,48.8067486 185.332071,48.7389649 C185.684019,48.6367757 185.988254,48.4755324 186.244776,48.2531811 C186.579793,47.9856405 186.833237,47.6282351 187.008697,47.1809649 C187.221097,46.6715595 187.327297,46.0414784 187.327297,45.2984243 C187.327297,44.0978297 186.98561,43.1283162 186.300697,42.3873162 C185.638358,41.6796946 184.800045,41.3263973 183.790889,41.3263973 C183.426628,41.3263973 183.078784,41.3741541 182.757106,41.468127 C182.394384,41.5898297 182.082967,41.7711 181.814132,42.0037216 C181.507845,42.285127 181.278002,42.6338027 181.120497,43.0497486 C180.931697,43.5314243 180.841402,44.0978297 180.841402,44.7494784 C180.841402,45.9279919 181.171289,46.8959649 181.829523,47.6533973 C182.501097,48.4442081 183.39995,48.8416676 184.52608,48.8416676 Z" id="Fill-11" fill="#4C4C4C" fill-rule="nonzero"></path>
                    <path d="M190.756583,44.2234865 C190.756583,42.7681892 190.751452,41.9814865 190.742217,41.868 C190.724261,41.5568108 190.549313,41.356027 190.21327,41.2671892 L190.013183,41.2425405 C189.926991,41.2338108 189.837722,41.2297027 189.748965,41.2297027 C189.610443,41.2297027 189.53913,41.1901622 189.53913,41.1146757 C189.53913,41.0427838 189.6284,41.0052973 189.803348,41.0052973 L191.935043,41.030973 L193.196617,41.0052973 C193.375157,41.0052973 193.461861,41.0427838 193.461861,41.1146757 C193.461861,41.1901622 193.394652,41.2297027 193.266391,41.2297027 C193.1802,41.2297027 193.061687,41.2425405 192.905722,41.2671892 C192.636887,41.3103243 192.488104,41.5111081 192.460913,41.868 L192.432183,42.5494324 L192.432183,45.7814865 C192.432183,46.5461081 192.51273,47.1433243 192.671774,47.5674865 C192.808757,47.9346486 193.039626,48.2376216 193.360278,48.4743514 C193.597817,48.6576757 193.871783,48.7834865 194.177043,48.8512703 C194.299661,48.8759189 194.42433,48.8928649 194.548487,48.9010811 C194.617748,48.9103243 194.679826,48.9149459 194.73113,48.9149459 L194.901974,48.9149459 C195.195435,48.9149459 195.469913,48.8733514 195.725922,48.7860541 C196.04247,48.6905405 196.310278,48.5354595 196.531913,48.329027 C196.8382,48.0578919 197.040339,47.6768649 197.139357,47.1782432 C197.181939,46.9692432 197.21067,46.7253243 197.228113,46.4444324 C197.235809,46.2436486 197.239913,45.9684054 197.239913,45.6202432 L197.239913,44.2234865 C197.239913,43.4742703 197.235809,42.9160811 197.228113,42.5494324 L197.216313,41.868 C197.191687,41.5568108 197.020843,41.356027 196.700191,41.2671892 L196.489843,41.2425405 C196.411348,41.2338108 196.3308,41.2297027 196.25487,41.2297027 C196.119426,41.2297027 196.053243,41.1901622 196.053243,41.1146757 C196.053243,41.0427838 196.132252,41.0052973 196.294374,41.0052973 L197.613922,41.030973 L199.1746,41.0052973 C199.342878,41.0052973 199.426504,41.0427838 199.426504,41.1146757 C199.426504,41.1901622 199.357243,41.2297027 199.223852,41.2297027 C199.138174,41.2297027 199.017096,41.2425405 198.858052,41.2671892 C198.591783,41.3103243 198.445565,41.5111081 198.4194,41.868 L198.404009,42.5494324 C198.394774,42.9160811 198.389643,43.4742703 198.389643,44.2234865 L198.389643,45.4107297 C198.389643,45.7686486 198.379383,46.0777838 198.351678,46.3412162 C198.317817,46.6832162 198.268052,46.9861892 198.194174,47.2542432 C198.008965,47.9012703 197.688313,48.405027 197.228113,48.7624324 C196.840765,49.0628378 196.400061,49.2805676 195.908565,49.4135676 C195.539174,49.5116486 195.118478,49.5599189 194.651096,49.5599189 L194.387904,49.5599189 C194.274522,49.5599189 194.167809,49.5547838 194.068791,49.5465676 C193.807652,49.5296216 193.568061,49.4982973 193.347452,49.4505405 C192.747704,49.3396216 192.253643,49.1239459 191.86527,48.7988919 C191.514348,48.5118378 191.250643,48.157 191.075696,47.7405405 C190.863296,47.2352432 190.756583,46.6051622 190.756583,45.8574865 L190.756583,44.2234865 Z M201.806,42.5494324 C201.806,42.2603243 201.802922,42.0338649 201.792661,41.868 C201.77573,41.5568108 201.598217,41.356027 201.266278,41.2671892 L201.064139,41.2425405 C200.967687,41.2338108 200.876365,41.2297027 200.78607,41.2297027 C200.64447,41.2297027 200.575209,41.1901622 200.575209,41.1146757 C200.575209,41.0427838 200.669096,41.0052973 200.854304,41.0052973 L202.93213,41.030973 C203.05013,41.0222432 203.235339,41.0181351 203.484165,41.0181351 L204.411235,41.0052973 C204.883235,41.0052973 205.284948,41.0335405 205.614835,41.0874595 C206.061696,41.1644865 206.429548,41.2949189 206.723009,41.4777297 C206.935409,41.6174054 207.121643,41.8048378 207.27607,42.040027 C207.480261,42.3455676 207.582357,42.6701081 207.582357,43.0095405 C207.582357,43.7916216 207.020061,44.6111892 205.893417,45.4672162 L206.298722,45.9211622 C206.436217,46.0947297 206.562426,46.2410811 206.669139,46.3545676 L207.368417,47.1520541 C207.844522,47.6948378 208.244183,48.1143784 208.570478,48.4178649 C208.8624,48.6961892 209.139957,48.8954324 209.40007,49.0104595 C209.490878,49.0546216 209.582713,49.0864595 209.677626,49.1126486 L210.023417,49.1763243 L210.159887,49.1763243 C210.263009,49.1763243 210.314826,49.2168919 210.314826,49.2985405 C210.314826,49.3745405 210.235817,49.4135676 210.076774,49.4135676 L208.913704,49.4135676 C208.331913,49.4135676 207.888643,49.3370541 207.582357,49.1891622 C207.335583,49.0782432 207.078548,48.8815676 206.810226,48.6006757 C206.597313,48.3855135 206.300261,48.0358108 205.927791,47.5551622 C205.813896,47.4262703 205.691278,47.2722162 205.559939,47.0883784 L204.952496,46.2657297 C204.870409,46.1522432 204.811409,46.0757297 204.77447,46.0428649 C204.717522,45.9863784 204.64313,45.9601892 204.554374,45.9601892 L203.458,45.934 C203.39387,45.934 203.361548,45.9668649 203.361548,46.030027 L203.361548,46.182027 C203.361548,46.7489459 203.366678,47.2147027 203.375913,47.5813514 C203.386174,48.0106486 203.403104,48.3331351 203.428243,48.5508649 C203.47493,48.9077568 203.632948,49.1044324 203.904861,49.1388378 C204.084939,49.162973 204.282974,49.1763243 204.497426,49.1763243 C204.596443,49.1763243 204.648261,49.2168919 204.648261,49.2985405 C204.648261,49.3745405 204.564635,49.4135676 204.396357,49.4135676 L202.240035,49.3745405 C202.193348,49.3827568 202.134348,49.3873784 202.057904,49.3873784 L201.002574,49.4135676 C200.849174,49.4135676 200.772217,49.3745405 200.772217,49.2985405 C200.772217,49.2168919 200.834809,49.1763243 200.961017,49.1763243 C201.136991,49.1763243 201.28167,49.162973 201.396078,49.1388378 C201.590522,49.0951892 201.706983,48.8995405 201.75367,48.5508649 C201.780861,48.3413514 201.798304,48.0147568 201.806,47.5674865 L201.806,42.5494324 Z M203.361548,45.0846486 C203.361548,45.1817027 203.399,45.2469189 203.470826,45.2818378 C203.702722,45.3506486 204.008496,45.3850541 204.396357,45.3850541 C204.794478,45.3850541 205.080243,45.326 205.256217,45.2063514 C205.476313,45.0574324 205.656391,44.8658919 205.796965,44.6307027 C205.964217,44.3344054 206.046304,43.9754595 206.046304,43.559 C206.046304,42.8621622 205.831339,42.3347838 205.399357,41.9748108 C205.05613,41.7113784 204.655957,41.5804324 204.19627,41.5804324 C203.842783,41.5804324 203.603704,41.5958378 203.470826,41.6245946 C203.399,41.6497568 203.361548,41.7021351 203.361548,41.7786486 L203.361548,45.0846486 Z M216.262539,41.6892973 L214.452522,41.7257568 C213.822504,41.735 213.429,41.8484865 213.276113,42.0646757 C213.217626,42.1381081 213.170426,42.2125676 213.132974,42.2880541 C213.116043,42.3152703 213.100652,42.343 213.091417,42.3779189 L213.066278,42.4482703 C213.038061,42.5412162 212.989835,42.5894865 212.923139,42.5894865 C212.851313,42.5894865 212.814374,42.5258108 212.814374,42.4041081 C212.814374,42.3599459 212.828739,42.2685405 212.856443,42.1298919 C212.8744,42.0097297 212.901078,41.868 212.937504,41.7021351 L213.08167,41.0571622 C213.10527,40.9200541 213.15247,40.8527838 213.214035,40.8527838 L213.552643,40.9421351 C213.615235,40.9595946 213.678852,40.9724324 213.742983,40.9791081 C214.066713,41.014027 214.472017,41.030973 214.958383,41.030973 L219.910278,41.030973 C220.081122,41.030973 220.245296,41.0273784 220.401774,41.0181351 C220.51567,41.0099189 220.626487,40.9960541 220.734226,40.9791081 L221.071296,40.9282703 C221.135939,40.9282703 221.165183,41.0073514 221.165183,41.1644865 L221.14107,42.5134865 C221.121574,42.6310811 221.084122,42.6911622 221.025122,42.6911622 C220.943548,42.6911622 220.897887,42.6182432 220.888652,42.4744595 L220.876852,42.3517297 C220.859409,42.1771351 220.752696,42.040027 220.558765,41.9378378 C220.309426,41.7961081 219.935417,41.7216486 219.434687,41.7134324 L217.899661,41.6892973 L217.899661,46.182027 C217.899661,46.7489459 217.905304,47.2105946 217.913,47.5674865 C217.922235,48.0065405 217.942757,48.3372432 217.968922,48.5631892 C218.013557,48.9128919 218.169522,49.1044324 218.436817,49.1388378 C218.601504,49.162973 218.811339,49.1763243 219.063243,49.1763243 C219.189452,49.1763243 219.252043,49.2168919 219.252043,49.2985405 C219.252043,49.3745405 219.177652,49.4135676 219.023739,49.4135676 L216.76327,49.3745405 C216.706835,49.3827568 216.638087,49.3873784 216.553948,49.3873784 L215.460139,49.4135676 C215.301609,49.4135676 215.222087,49.3745405 215.222087,49.2985405 C215.222087,49.2168919 215.289296,49.1763243 215.417557,49.1763243 C215.612513,49.1763243 215.75873,49.162973 215.852617,49.1388378 C216.045522,49.0951892 216.164035,48.8995405 216.210209,48.5508649 C216.2374,48.3413514 216.25587,48.0147568 216.262539,47.5674865 L216.262539,41.6892973 Z M223.411287,42.5494324 C223.411287,42.2603243 223.408722,42.0338649 223.398461,41.868 C223.373835,41.5568108 223.232748,41.3601351 222.981357,41.2795135 C222.86233,41.2466486 222.716626,41.2297027 222.539113,41.2297027 C222.410339,41.2297027 222.342617,41.1865676 222.342617,41.1013243 C222.342617,41.0376486 222.440096,41.0052973 222.634539,41.0052973 L224.57487,41.030973 L225.833878,41.0052973 C225.999591,41.0052973 226.083217,41.0376486 226.083217,41.1013243 C226.083217,41.1865676 226.019087,41.2297027 225.888774,41.2297027 C225.78873,41.2297027 225.668678,41.2425405 225.528617,41.2671892 C225.253626,41.3103243 225.102278,41.5111081 225.06893,41.868 L225.041226,42.5494324 L225.041226,46.9553784 C225.041226,47.2198378 225.046357,47.4416757 225.055591,47.6244865 C225.055591,48.0758649 225.071496,48.4065676 225.103817,48.614027 C225.147939,48.9205946 225.310061,49.0951892 225.584026,49.1388378 C225.749739,49.162973 225.957009,49.1763243 226.204809,49.1763243 C226.336148,49.1763243 226.40233,49.2168919 226.40233,49.2985405 C226.40233,49.3745405 226.322809,49.4135676 226.165304,49.4135676 L223.905348,49.3745405 C223.852504,49.3827568 223.783243,49.3873784 223.703209,49.3873784 L222.608374,49.4135676 C222.450357,49.4135676 222.370835,49.3745405 222.370835,49.2985405 C222.370835,49.2168919 222.434965,49.1763243 222.566817,49.1763243 C222.742278,49.1763243 222.884904,49.162973 222.994183,49.1388378 C223.197861,49.0951892 223.3174,48.9164865 223.358957,48.6006757 C223.386661,48.3942432 223.403591,48.0671351 223.411287,47.6244865 L223.411287,42.5494324 Z M229.499574,41.0443243 C229.5242,40.8527838 229.602696,40.7567568 229.734035,40.7567568 C229.853061,40.7567568 229.976704,40.8769189 230.107017,41.1146757 L233.372026,47.3071351 L236.645757,41.030973 C236.744261,40.8486757 236.850461,40.7567568 236.963843,40.7567568 C237.016174,40.7567568 237.072609,40.7896216 237.124939,40.8527838 C237.187017,40.9113243 237.223443,40.9986216 237.240887,41.1146757 L238.352652,47.9757297 C238.448078,48.6268649 238.646113,48.9924865 238.944704,49.0736216 C239.098617,49.1172703 239.2356,49.146027 239.357191,49.162973 C239.451078,49.1711892 239.544965,49.1763243 239.634235,49.1763243 C239.766087,49.1763243 239.831757,49.2138108 239.831757,49.2857027 C239.831757,49.3704324 239.725557,49.4135676 239.513157,49.4135676 C238.801565,49.4135676 237.961713,49.3873784 236.991548,49.3355135 C236.850461,49.3288378 236.754009,49.3108649 236.700652,49.2857027 C236.655504,49.2677297 236.631391,49.238973 236.631391,49.2025135 C236.631391,49.1501351 236.677565,49.1126486 236.768374,49.0864595 C236.838148,49.0602703 236.857643,48.9036486 236.820704,48.614027 L236.144,43.807027 L236.105009,43.807027 L233.489,48.7752703 C233.349452,49.0433243 233.251974,49.2138108 233.197078,49.2857027 C233.130896,49.3611892 233.0642,49.4007297 233.00007,49.4007297 C232.888226,49.4007297 232.725591,49.2138108 232.513704,48.8384324 L231.349609,46.7705135 C231.225965,46.5348108 231.144904,46.3848649 231.114635,46.3170811 L230.620574,45.3326757 C230.369183,44.8355946 230.126513,44.3693243 229.895643,43.9354054 L229.857678,43.9354054 L229.274861,48.2766486 C229.24767,48.4676757 229.233304,48.6422703 229.233304,48.7988919 C229.233304,48.972973 229.359513,49.0823514 229.606287,49.1265135 C229.791496,49.1588649 229.934635,49.1763243 230.03827,49.1763243 C230.166017,49.1763243 230.228096,49.2138108 230.228096,49.2857027 C230.228096,49.3704324 230.131643,49.4135676 229.9372,49.4135676 L228.416026,49.3745405 C228.3796,49.3827568 228.330861,49.3873784 228.267243,49.3873784 L227.449452,49.4135676 C227.298617,49.4135676 227.225252,49.3704324 227.225252,49.2857027 C227.225252,49.2138108 227.289383,49.1763243 227.422261,49.1763243 L227.571043,49.1763243 L227.792678,49.1501351 C227.943513,49.1347297 228.061513,49.0340811 228.152835,48.8512703 C228.210809,48.7182703 228.256983,48.5354595 228.294435,48.3028378 L229.499574,41.0443243 Z M241.074348,42.5494324 C241.074348,42.2603243 241.070243,42.0338649 241.062035,41.868 C241.042539,41.5568108 240.867078,41.356027 240.535652,41.2671892 L240.330948,41.2425405 C240.237061,41.2338108 240.145739,41.2297027 240.054417,41.2297027 C239.913843,41.2297027 239.844583,41.1901622 239.844583,41.1146757 C239.844583,41.0427838 239.937443,41.0052973 240.121113,41.0052973 L241.5484,41.030973 L245.2064,41.030973 C245.262322,41.030973 245.314652,41.0273784 245.368009,41.0181351 L245.715852,40.9683243 C245.732783,40.9683243 245.764591,40.9595946 245.817435,40.9421351 C245.861043,40.9251892 245.893365,40.9159459 245.910296,40.9159459 C245.965191,40.9159459 245.991357,40.9503514 245.991357,41.0181351 L245.965191,41.1537027 C245.965191,41.1773243 245.960061,41.1994054 245.9498,41.2163514 C245.925687,41.3652703 245.906191,41.5398649 245.896957,41.7396216 L245.8436,42.3152703 C245.8436,42.3953784 245.839496,42.4482703 245.829748,42.4744595 L245.817435,42.5242703 C245.807174,42.5494324 245.796913,42.5674054 245.789217,42.5761351 C245.764591,42.626973 245.732783,42.6531622 245.686096,42.6531622 C245.62453,42.6531622 245.592209,42.6064324 245.592209,42.5134865 C245.592209,42.4482703 245.587078,42.3871622 245.579383,42.3281081 C245.559374,42.2433784 245.540904,42.1663514 245.511148,42.1037027 C245.453687,41.983027 245.381861,41.8962432 245.301313,41.8418108 C245.178696,41.774027 244.979635,41.7257568 244.70567,41.7021351 C244.662574,41.6939189 244.546626,41.6892973 244.361417,41.6892973 L243.765774,41.6631081 L242.793043,41.6497568 C242.739174,41.6497568 242.71147,41.6846757 242.71147,41.752973 L242.71147,44.4977027 C242.71147,44.5783243 242.739174,44.6178649 242.793043,44.6178649 L243.860687,44.6178649 C244.126957,44.6178649 244.344487,44.6111892 244.509687,44.6004054 C244.722087,44.6004054 244.863174,44.5957838 244.92987,44.5875676 C245.232052,44.5613784 245.42547,44.5064324 245.511148,44.4217027 L245.6194,44.3123243 C245.653774,44.2871622 245.68353,44.2732973 245.700461,44.2732973 C245.767157,44.2732973 245.802043,44.3148919 245.802043,44.3955135 L245.658904,45.6330811 L245.649157,45.9473514 C245.649157,46.01 245.644026,46.0623784 245.633765,46.1055135 C245.605548,46.1650811 245.569635,46.1953784 245.525513,46.1953784 C245.448557,46.1953784 245.409565,46.1650811 245.409565,46.1055135 L245.368009,45.7034324 C245.288487,45.4477027 245.063774,45.3039189 244.692843,45.269 C244.638974,45.2607838 244.523026,45.2566757 244.348078,45.2566757 L243.765774,45.232027 L242.778165,45.2191892 C242.734043,45.2191892 242.71147,45.2566757 242.71147,45.3326757 L242.71147,47.8694324 C242.721217,48.2458378 242.844861,48.4964324 243.0824,48.614027 C243.2948,48.7388108 243.722165,48.7988919 244.361417,48.7988919 C244.583052,48.7988919 244.776983,48.7901622 244.944235,48.7752703 C245.181261,48.7572973 245.370061,48.7167297 245.511148,48.6530541 C245.776904,48.5421351 245.9498,48.2679189 246.033939,47.8293784 C246.063183,47.7184595 246.110896,47.6645405 246.175026,47.6645405 C246.219661,47.6645405 246.249417,47.6948378 246.267887,47.7533784 C246.279174,47.7862432 246.283278,47.8447838 246.283278,47.9259189 C246.283278,48.3855135 246.226843,48.7927297 246.121157,49.1501351 C246.060617,49.3416757 245.8436,49.4382162 245.462922,49.4382162 C244.572278,49.4382162 243.823748,49.4243514 243.225539,49.4007297 L241.561739,49.3745405 L241.115904,49.3873784 C240.728557,49.4048378 240.446896,49.4135676 240.269383,49.4135676 C240.115983,49.4135676 240.041591,49.3745405 240.041591,49.2985405 C240.041591,49.2168919 240.10367,49.1763243 240.229365,49.1763243 C240.405339,49.1763243 240.551043,49.162973 240.661861,49.1388378 C240.856304,49.0951892 240.97533,48.8995405 241.022017,48.5508649 C241.04767,48.3413514 241.066652,48.0147568 241.074348,47.5674865 L241.074348,42.5494324 Z" id="Fill-14" fill="#4C4C4C" fill-rule="nonzero"></path>
                </g>
            </g>
        </g>
    </g>
</svg>