<?xml version="1.0" encoding="UTF-8"?>
<svg width="25px" height="25px" viewBox="0 0 25 25" version="1.1" xmlns="http://www.w3.org/2000/svg" xmlns:xlink="http://www.w3.org/1999/xlink">
    <!-- Generator: Sketch 52.5 (67469) - http://www.bohemiancoding.com/sketch -->
    <title>Shape</title>
    <desc>Created with Sketch.</desc>
    <g id="Page-1" stroke="none" stroke-width="1" fill="none" fill-rule="evenodd">
        <g id="6.0-.-Xoá-lịch-đã-đặt" transform="translate(-1221.000000, -25.000000)" fill="#868686" fill-rule="nonzero">
            <g id="Group-10">
                <g id="settings-work-tool" transform="translate(1221.000000, 25.000000)">
                    <path d="M24.8996283,11.1023234 C24.8601301,10.7512082 24.4507435,10.4873606 24.0967472,10.4873606 C22.9522305,10.4873606 21.9366171,9.81533457 21.5106877,8.7760223 C21.0755576,7.71152416 21.3561338,6.47007435 22.2091078,5.68763941 C22.4776022,5.44219331 22.510223,5.0313197 22.2850372,4.74591078 C21.6992565,4.00204461 21.0334572,3.33011152 20.3065056,2.74776952 C20.0218401,2.51933086 19.6041822,2.55111524 19.357342,2.82444238 C18.6129182,3.64888476 17.2757435,3.9552974 16.2424721,3.52416357 C15.1671933,3.07184015 14.4891264,1.98224907 14.5554833,0.812639405 C14.5773234,0.445260223 14.308829,0.125836431 13.9425651,0.0831784387 C13.0096654,-0.0247211896 12.0685874,-0.0280669145 11.1328996,0.0757434944 C10.7708178,0.11570632 10.5023234,0.42760223 10.5144981,0.790334572 C10.5552045,1.94842007 9.86895911,3.01895911 8.80436803,3.45501859 C7.78345725,3.87202602 6.45566914,3.56821561 5.71273234,2.75111524 C5.46719331,2.48197026 5.0563197,2.44888476 4.77026022,2.67184015 C4.02174721,3.25910781 3.34098513,3.93159851 2.74981413,4.66933086 C2.51923792,4.95613383 2.55315985,5.37184015 2.82434944,5.61858736 C3.69358736,6.40576208 3.97425651,7.65799257 3.52267658,8.73475836 C3.09154275,9.76133829 2.02555762,10.4229554 0.805204461,10.4229554 C0.409200743,10.410223 0.127137546,10.6760223 0.0838289963,11.0360595 C-0.0260223048,11.9743494 -0.0273234201,12.9303903 0.0784386617,13.8763011 C0.117657993,14.2289033 0.539498141,14.4904275 0.89739777,14.4904275 C1.98494424,14.4626394 3.02908922,15.1359665 3.46710037,16.2018587 C3.90371747,17.2663569 3.62304833,18.5070632 2.76877323,19.2901487 C2.50157993,19.5355948 2.46765799,19.9458178 2.69284387,20.2312268 C3.27314126,20.9703532 3.93903346,21.6429368 4.66858736,22.2301115 C4.95473978,22.4606877 5.37109665,22.4281599 5.61914498,22.1548327 C6.36635688,21.3283457 7.70343866,21.0224907 8.73262082,21.454461 C9.8105948,21.9053903 10.4886617,22.9948885 10.4223048,24.1651487 C10.4006506,24.5327138 10.6704461,24.8526952 11.035223,24.8947026 C11.5124535,24.9503717 11.9925651,24.9781599 12.4739777,24.9781599 C12.930948,24.9781599 13.3880112,24.9530669 13.8449814,24.9022305 C14.2071561,24.8622677 14.4754647,24.5503717 14.46329,24.1869888 C14.4213755,23.0295539 15.108829,21.9590149 16.172026,21.5236989 C17.1998141,21.1039033 18.522026,21.4111524 19.2650558,22.2274164 C19.5119888,22.4960037 19.9199814,22.5284387 20.2076208,22.3062268 C20.9547398,21.7203532 21.6341078,21.0484201 22.2280669,20.3086431 C22.4585502,20.0224907 22.4260223,19.6061338 22.1534387,19.3594796 C21.2842007,18.5723048 21.0021375,17.3198885 21.4537175,16.2438662 C21.8782528,15.230948 22.9046468,14.5508364 24.0086431,14.5508364 L24.1631041,14.5548327 C24.5211896,14.5839219 24.8506506,14.3080855 24.894052,13.9425651 C25.0040892,13.0034387 25.0053903,12.0482342 24.8996283,11.1023234 Z M12.508829,16.6813197 C10.2116171,16.6813197 8.34302974,14.8127323 8.34302974,12.5155204 C8.34302974,10.2184015 10.2116171,8.34972119 12.508829,8.34972119 C14.805948,8.34972119 16.6745353,10.2184015 16.6745353,12.5155204 C16.6745353,14.8127323 14.805948,16.6813197 12.508829,16.6813197 Z" id="Shape"></path>
                </g>
            </g>
        </g>
    </g>
</svg>