<?xml version="1.0" encoding="UTF-8"?>
<svg width="10px" height="10px" viewBox="0 0 10 10" version="1.1" xmlns="http://www.w3.org/2000/svg" xmlns:xlink="http://www.w3.org/1999/xlink">
    <!-- Generator: Sketch 52.5 (67469) - http://www.bohemiancoding.com/sketch -->
    <title>small-calendar</title>
    <desc>Created with Sketch.</desc>
    <g id="Page-1" stroke="none" stroke-width="1" fill="none" fill-rule="evenodd">
        <g id="7.0.-Chọn-chỉnh-sửa-lịch(người-dùng-đặt)" transform="translate(-834.000000, -461.000000)" fill="#4C4C4C">
            <g id="Group-5" transform="translate(814.000000, 326.000000)">
                <g id="small-calendar" transform="translate(20.000000, 135.000000)">
                    <path d="M9.166875,0.9375 L7.8125,0.9375 L7.8125,0.3125 C7.8125,0.1396875 7.6728125,0 7.5,0 C7.3271875,0 7.1875,0.1396875 7.1875,0.3125 L7.1875,0.9375 L5.3125,0.9375 L5.3125,0.3125 C5.3125,0.1396875 5.1725,0 5,0 C4.8275,0 4.6875,0.1396875 4.6875,0.3125 L4.6875,0.9375 L2.8125,0.9375 L2.8125,0.3125 C2.8125,0.1396875 2.6725,0 2.5,0 C2.3275,0 2.1875,0.1396875 2.1875,0.3125 L2.1875,0.9375 L0.8334375,0.9375 C0.373125,0.9375 0,1.3103125 0,1.770625 L0,9.1665625 C0,9.626875 0.373125,10 0.8334375,10 L9.166875,10 C9.6271875,10 10,9.626875 10,9.1665625 L10,1.770625 C10,1.3103125 9.6271875,0.9375 9.166875,0.9375 Z M9.375,9.1665625 C9.375,9.2815625 9.2815625,9.375 9.166875,9.375 L0.8334375,9.375 C0.7184375,9.375 0.625,9.2815625 0.625,9.1665625 L0.625,1.770625 C0.625,1.6559375 0.7184375,1.5625 0.8334375,1.5625 L2.1875,1.5625 L2.1875,2.1875 C2.1875,2.3603125 2.3275,2.5 2.5,2.5 C2.6725,2.5 2.8125,2.3603125 2.8125,2.1875 L2.8125,1.5625 L4.6875,1.5625 L4.6875,2.1875 C4.6875,2.3603125 4.8275,2.5 5,2.5 C5.1725,2.5 5.3125,2.3603125 5.3125,2.1875 L5.3125,1.5625 L7.1875,1.5625 L7.1875,2.1875 C7.1875,2.3603125 7.3271875,2.5 7.5,2.5 C7.6728125,2.5 7.8125,2.3603125 7.8125,2.1875 L7.8125,1.5625 L9.166875,1.5625 C9.2815625,1.5625 9.375,1.6559375 9.375,1.770625 L9.375,9.1665625 Z" id="Shape" fill-rule="nonzero"></path>
                    <rect id="Rectangle" x="2.1875" y="3.75" width="1.25" height="1"></rect>
                    <rect id="Rectangle" x="2.1875" y="5.3125" width="1.25" height="1"></rect>
                    <rect id="Rectangle" x="2.1875" y="6.875" width="1.25" height="1"></rect>
                    <rect id="Rectangle" x="4.375" y="6.875" width="1.25" height="1"></rect>
                    <rect id="Rectangle" x="4.375" y="5.3125" width="1.25" height="1"></rect>
                    <rect id="Rectangle" x="4.375" y="3.75" width="1.25" height="1"></rect>
                    <rect id="Rectangle" x="6.5625" y="6.875" width="1.25" height="1"></rect>
                    <rect id="Rectangle" x="6.5625" y="5.3125" width="1.25" height="1"></rect>
                    <rect id="Rectangle" x="6.5625" y="3.75" width="1.25" height="1"></rect>
                </g>
            </g>
        </g>
    </g>
</svg>